<svg xmlns="http://www.w3.org/2000/svg" width="20" height="250" viewBox="0 0 20 250">
  <defs>
    <style>
      .cls-1 {
        fill: #fff;
        stroke: #c60010;
        stroke-linecap: round;
        stroke-linejoin: round;
        stroke-width: 2px;
      }

      .cls-1, .cls-2, .cls-3, .cls-4, .cls-5, .cls-6, .cls-7 {
        fill-rule: evenodd;
      }

      .cls-2 {
        fill: #1284b9;
      }

      .cls-3 {
        fill: #fe9b00;
      }

      .cls-4 {
        fill: #485764;
      }

      .cls-5 {
        fill: #1285ba;
      }

      .cls-6 {
        fill: #6c757c;
      }

      .cls-7 {
        fill: #3e3e3e;
      }
    </style>
  </defs>
  <path class="cls-1" d="M12.052,42.985l6.617,10.93A3.3,3.3,0,0,1,19,55.378a3.37,3.37,0,0,1-.228,1.232A1.959,1.959,0,0,1,17.054,58H2.946a1.959,1.959,0,0,1-1.718-1.39,3.412,3.412,0,0,1,.1-2.7l6.617-10.93A2.628,2.628,0,0,1,12.052,42.985Z"/>
  <path class="cls-2" d="M10.034,71.966L9.991,71.89,8.21,74.975,9.8,77.734l-0.544.942H8.17L7.121,76.86l-1.2,2.083H4.83L4.286,78l1.2-2.083h-2.1l-0.544-.942,0.544-.942H6.577l1.781-3.085H4.8L3.2,73.706H2.115l-0.544-.943L2.62,70.948H0.215l-0.544-.942,0.544-.942H2.62L1.571,67.247,2.115,66.3H3.2L4.8,69.062H8.358L6.577,65.978H3.392l-0.544-.942,0.544-.943h2.1l-1.2-2.083,0.544-.942H5.919l1.2,2.083L8.17,61.335H9.258L9.8,62.277,8.209,65.036,9.99,68.121l0.044-.077,1.659,2.263Z"/>
  <path class="cls-3" d="M18.562,73.075l-0.978-.262a1.013,1.013,0,0,1,.524-1.956l0.978,0.262A1.013,1.013,0,1,1,18.562,73.075Zm-5.99-8.943a1.013,1.013,0,0,1-.716-1.24l0.262-.978a1.013,1.013,0,1,1,1.956.524l-0.262.978A1.012,1.012,0,0,1,12.572,64.132Zm4.871,12.312a1.013,1.013,0,0,1-1.432,0L15.3,75.728A1.013,1.013,0,0,1,16.728,74.3l0.716,0.716A1.013,1.013,0,0,1,17.444,76.444ZM16.728,65.7A1.013,1.013,0,0,1,15.3,64.272l0.716-.716a1.013,1.013,0,1,1,1.432,1.432ZM19.8,67.641a1.013,1.013,0,0,1-.716,1.24l-0.978.262a1.013,1.013,0,0,1-.524-1.956l0.978-.262A1.013,1.013,0,0,1,19.8,67.641Zm-5.99,8.943,0.262,0.978a1.013,1.013,0,1,1-1.956.524l-0.262-.978A1.013,1.013,0,0,1,13.813,76.584Zm-3.749-1.69,1.142-1.9a2.992,2.992,0,0,0,.006-5.971l-1.145-1.908A4.987,4.987,0,1,1,10.064,74.894Z"/>
  <path class="cls-4" d="M20,171.469c0,3.56-2,6.283-4.961,6.509a1.04,1.04,0,0,0-1.991.022H10.983a1.04,1.04,0,0,0-2,0H7.046a1.04,1.04,0,0,0-1.992-.018C2.042,177.8,0,175.061,0,171.469a6.2,6.2,0,0,1,2.219-4.688A2.984,2.984,0,0,0,3,164.562L3,163.049c0-.016,0-0.032,0-0.049a1,1,0,0,1,2,0c0,0.017,0,.033,0,0.049-0.005.422-.064,3.681-0.684,4.262C3.5,168.073,2,169.3,2,171.311c0,4.45,3.03,4.689,3.03,4.689h9.956s3.021-.239,3.021-4.689c0-2.007-1.495-3.238-2.306-4-0.593-.558-0.677-3.584-0.688-4.2A0.983,0.983,0,1,1,16.969,163s0,0,0,0H17l0.008,1.558a2.99,2.99,0,0,0,.779,2.219A6.207,6.207,0,0,1,20,171.469Z"/>
  <path class="cls-5" d="M6.579,175.781H4.172a5.509,5.509,0,0,1-2.673-4.24,4.975,4.975,0,0,1,3.266-4.836,5.618,5.618,0,0,0-1.578,3.881A5.792,5.792,0,0,0,6.579,175.781Z"/>
  <path class="cls-5" d="M18.494,171.541a5.509,5.509,0,0,1-2.673,4.24h-2.4a5.792,5.792,0,0,0,3.392-5.195,5.619,5.619,0,0,0-1.572-3.876A4.975,4.975,0,0,1,18.494,171.541Z"/>
  <path class="cls-4" d="M2.346,174.309a31.177,31.177,0,0,0,7.533,1.078,34.015,34.015,0,0,0,7.817-1.078v2.123H2.346v-2.123Z"/>
  <path class="cls-6" d="M7,208.5V207H7l2.719-5h0.563l1.9,3.492ZM4,215H16a1,1,0,0,1,0,2H4A1,1,0,0,1,4,215Zm3-1v-1.06l6-3.485V214H7Z"/>
  <path class="cls-2" d="M4.476,211.134l10.077-6a0.954,0.954,0,0,1,1.325.366,1.017,1.017,0,0,1-.355,1.366l-10.077,6a0.954,0.954,0,0,1-1.325-.366A1.017,1.017,0,0,1,4.476,211.134Z"/>
  <path class="cls-7" d="M6,55H6V49H8v4H9V49h2v4h1V49h2v6H6Z"/>
  <path class="cls-3" d="M8.706,25.17A5,5,0,1,1,5.17,31.294,5,5,0,0,1,8.706,25.17ZM9.224,27.1A3,3,0,1,1,7.1,30.777,3,3,0,0,1,9.224,27.1ZM7.641,21.2a1.013,1.013,0,0,1,1.24.716l0.262,0.978a1.013,1.013,0,0,1-1.956.524l-0.262-.978A1.013,1.013,0,0,1,7.641,21.2Zm3.931,14.671a1.012,1.012,0,0,1,1.24.716l0.262,0.978a1.013,1.013,0,0,1-1.956.524l-0.262-.978A1.013,1.013,0,0,1,11.572,35.868Zm-9.659-4.75,0.978-.262a1.013,1.013,0,0,1,.524,1.956l-0.978.262A1.013,1.013,0,0,1,1.914,31.119Zm14.671-3.931,0.978-.262a1.013,1.013,0,1,1,.524,1.956l-0.978.262A1.013,1.013,0,0,1,16.584,27.188ZM3.556,23.556a1.013,1.013,0,0,1,1.432,0L5.7,24.272A1.013,1.013,0,0,1,4.272,25.7l-0.716-.716A1.013,1.013,0,0,1,3.556,23.556ZM14.3,34.3a1.012,1.012,0,0,1,1.432,0l0.716,0.716a1.013,1.013,0,0,1-1.432,1.432L14.3,35.728A1.012,1.012,0,0,1,14.3,34.3Zm-10.74.716L4.272,34.3A1.013,1.013,0,0,1,5.7,35.728l-0.716.716A1.013,1.013,0,0,1,3.556,35.012ZM14.3,24.272l0.716-.716a1.013,1.013,0,1,1,1.432,1.432l-0.716.716A1.013,1.013,0,1,1,14.3,24.272ZM1.2,27.641a1.013,1.013,0,0,1,1.24-.716l0.978,0.262a1.013,1.013,0,0,1-.524,1.956l-0.978-.262A1.013,1.013,0,0,1,1.2,27.641Zm14.671,3.931a1.013,1.013,0,0,1,1.24-.716l0.978,0.262a1.013,1.013,0,1,1-.524,1.956l-0.978-.262A1.012,1.012,0,0,1,15.868,31.572Zm-8.943,5.99,0.262-.978a1.013,1.013,0,0,1,1.956.524l-0.262.978A1.013,1.013,0,1,1,6.925,37.562Zm3.931-14.671,0.262-.978a1.013,1.013,0,0,1,1.956.524l-0.262.978A1.013,1.013,0,0,1,10.856,22.892Z"/>
  <path class="cls-2" d="M20.31,10.005l-0.544-.942H17.361L18.41,7.247,17.866,6.3H16.778L15.185,9.063H11.623L13.4,5.978h3.185l0.544-.942-0.544-.942h-2.1l1.2-2.083-0.544-.942H14.062l-1.2,2.083L11.811,1.335H10.723l-0.544.943,1.592,2.759L9.99,8.121,8.209,5.036,9.8,2.277,9.258,1.335H8.17L7.121,3.151l-1.2-2.083H4.831L4.286,2.01l1.2,2.083h-2.1l-0.544.943L3.392,5.978H6.577L8.358,9.063H4.8L3.2,6.3H2.115l-0.544.942L2.62,9.063H0.215l-0.544.942,0.544,0.942H2.62L1.571,12.764l0.544,0.943H3.2L4.8,10.948H8.358L6.577,14.032H3.392l-0.544.942,0.544,0.942h2.1L4.286,18,4.83,18.943H5.919l1.2-2.083L8.17,18.676H9.258L9.8,17.734,8.21,14.975,9.991,11.89l1.781,3.085-1.592,2.759,0.544,0.943h1.088L12.86,16.86l1.2,2.083h1.088L15.695,18l-1.2-2.083h2.1l0.544-.942-0.544-.943H13.4l-1.781-3.085h3.562l1.592,2.759h1.088l0.544-.942-1.048-1.816h2.405Z"/>
</svg>
