<svg xmlns="http://www.w3.org/2000/svg" width="200" height="100" viewBox="0 0 200 100">
  <defs>
    <style>
      .cls-1 {
        fill: #e62222;
      }

      .cls-2 {
        fill: #333;
      }

      .cls-2, .cls-3, .cls-4, .cls-5, .cls-6, .cls-8 {
        fill-rule: evenodd;
      }

      .cls-3, .cls-4, .cls-7, .cls-8 {
        fill: none;
        stroke-linecap: round;
        stroke-linejoin: round;
        stroke-width: 2px;
      }

      .cls-3 {
        stroke: #333;
      }

      .cls-4 {
        stroke: #fff;
      }

      .cls-5 {
        fill: #c4c4c4;
      }

      .cls-6 {
        fill: #fff;
      }

      .cls-7, .cls-8 {
        stroke: #52c200;
      }

      .cls-9 {
        fill: #52c200;
      }
    </style>
  </defs>
  <circle class="cls-1" cx="42" cy="83" r="10"/>
  <path class="cls-2" d="M20.7,89.235A1.039,1.039,0,0,1,19.235,90.7l-2.751-2.751a1.015,1.015,0,0,1-.243-0.418,7.069,7.069,0,1,1,1.294-1.294,1.015,1.015,0,0,1,.418.243ZM12,77a5,5,0,1,0,5,5A5,5,0,0,0,12,77Z"/>
  <path class="cls-3" d="M58,48H44"/>
  <path class="cls-3" d="M54,43l5,5-5,5"/>
  <path class="cls-4" d="M20,48H6"/>
  <path class="cls-4" d="M16,43l5,5-5,5"/>
  <path class="cls-5" d="M93.414,71l2.3,2.3A1,1,0,0,1,94.3,74.717l-2.3-2.3-2.3,2.3A1,1,0,1,1,88.282,73.3l2.3-2.3-2.3-2.3A1,1,0,0,1,89.7,67.283l2.3,2.3,2.3-2.3A1,1,0,0,1,95.718,68.7Z"/>
  <path data-name="X" class="cls-6" d="M93.414,92l2.3,2.3A1,1,0,0,1,94.3,95.717l-2.3-2.3-2.3,2.3A1,1,0,1,1,88.282,94.3l2.3-2.3-2.3-2.3A1,1,0,0,1,89.7,88.283l2.3,2.3,2.3-2.3A1,1,0,0,1,95.718,89.7Z"/>
  <path class="cls-6" d="M46.7,87.7a1.039,1.039,0,0,1-1.469,0l-2.25-2.25A3.959,3.959,0,0,1,41,86a4,4,0,1,1,4-4,3.959,3.959,0,0,1-.546,1.984l2.25,2.25A1.039,1.039,0,0,1,46.7,87.7ZM41,80a2,2,0,1,0,2,2A2,2,0,0,0,41,80Z"/>
  <circle class="cls-7" cx="138" cy="40" r="34"/>
  <path class="cls-8" d="M122,42l10,10,22-22"/>
  <path class="cls-6" d="M73.72,10.686L68.452,16.7a0.857,0.857,0,0,1-1.286,0l-2.919-3a1.057,1.057,0,0,1,0-1.4,0.856,0.856,0,0,1,1.286,0L67.776,14.6l4.658-5.314a0.856,0.856,0,0,1,1.286,0A1.057,1.057,0,0,1,73.72,10.686Z"/>
  <path data-name="Check" class="cls-6" d="M87.692,10.686L80.9,18.7a1.006,1.006,0,0,1-1.414,0l-4.211-4a0.987,0.987,0,0,1,0-1.4,1.006,1.006,0,0,1,1.414,0l3.428,3.257,6.163-7.265a1,1,0,0,1,1.414,0A0.986,0.986,0,0,1,87.692,10.686Z"/>
  <circle data-name="Check" class="cls-1" cx="36" cy="14" r="10"/>
  <path data-name="Check" class="cls-6" d="M40.72,11.686L35.452,17.7a0.857,0.857,0,0,1-1.286,0l-2.919-3a1.057,1.057,0,0,1,0-1.4,0.856,0.856,0,0,1,1.286,0L34.776,15.6l4.658-5.314a0.856,0.856,0,0,1,1.286,0A1.057,1.057,0,0,1,40.72,11.686Z"/>
  <circle data-name="Check" class="cls-9" cx="15" cy="14" r="10"/>
  <path data-name="Check" class="cls-6" d="M19.72,11.686L14.452,17.7a0.857,0.857,0,0,1-1.286,0l-2.919-3a1.057,1.057,0,0,1,0-1.4,0.856,0.856,0,0,1,1.286,0L13.776,15.6l4.658-5.314a0.856,0.856,0,0,1,1.286,0A1.057,1.057,0,0,1,19.72,11.686Z"/>
</svg>
