<svg xmlns="http://www.w3.org/2000/svg" width="120" height="60" viewBox="0 0 120 60">
  <defs>
    <style>
      .cls-1 {
        fill: none;
        stroke: #e83333;
        stroke-linecap: round;
        stroke-linejoin: round;
        stroke-width: 2px;
      }

      .cls-1, .cls-2, .cls-3 {
        fill-rule: evenodd;
      }

      .cls-2 {
        fill: #e83333;
      }

      .cls-3 {
        fill: #fbfbfb;
      }
    </style>
  </defs>
  <path data-name="Polygon 1" class="cls-1" d="M88.938,56.5a0.5,0.5,0,0,1-.5.5,0.488,0.488,0,0,1-.157-0.032c0,0.015-.015.025-0.016,0.041H61.7c0-.015-0.014-0.026-0.016-0.041a0.489,0.489,0,0,1-.158.032,0.5,0.5,0,0,1-.343-0.861l13.3-22.873c0.011,0.008.025,0.012,0.037,0.02a0.488,0.488,0,0,1,.948-0.017c0.012-.008.027-0.013,0.038-0.022L88.88,56.24c-0.007,0-.011.009-0.017,0.012A0.487,0.487,0,0,1,88.938,56.5Z"/>
  <path class="cls-2" d="M75,51a1,1,0,1,1-1,1A1,1,0,0,1,75,51Zm0-9a1,1,0,0,1,1,1v6a1,1,0,0,1-2,0V43A1,1,0,0,1,75,42Z"/>
  <path class="cls-3" d="M60,30V60H0V0H120V30H60ZM27.987,36.1c0,0.023.013,0.043,0.013,0.066s-0.016.062-.019,0.095l-0.007.2-1.607,7.435a2.136,2.136,0,0,1-.591.791,1.883,1.883,0,0,1-.891.292H9.216a1.418,1.418,0,0,1-.988-0.5,2.891,2.891,0,0,1-.466-0.756L5.906,33H1.964A0.964,0.964,0,0,1,1,32.036V31.965A0.964,0.964,0,0,1,1.964,31h4.8a0.956,0.956,0,0,1,.9.645L7.7,31.657l0.634,3.359L26.8,35.008c0.013,0,.025-0.008.038-0.008s0.025,0.007.039,0.008h0.038l0.009,0.01a1.147,1.147,0,0,1,1.062,1.071l0,0V36.1ZM9.7,43H24.67l1.25-6H8.9ZM12,47.015a3.992,3.992,0,1,1-3.989,3.992A3.991,3.991,0,0,1,12,47.015ZM12,53A1.994,1.994,0,1,0,10,51.007,1.994,1.994,0,0,0,12,53Zm10.011-5.988a3.993,3.993,0,1,1-4,3.994A4,4,0,0,1,22.007,47.013Zm0,5.988a1.994,1.994,0,1,0-2-1.994A2,2,0,0,0,22.007,53ZM45,60A15,15,0,1,1,60,45,15,15,0,0,1,45,60Zm0-28A13,13,0,1,0,58,45,13,13,0,0,0,45,32ZM44.788,48.587a0.953,0.953,0,0,1-.07.108,0.931,0.931,0,0,1-.215.147,0.777,0.777,0,0,1-.443.139,0.94,0.94,0,0,1-.705-0.285l-3.093-3a1.013,1.013,0,0,1,0-1.4,0.944,0.944,0,0,1,1.362,0l2.4,2.332,4.475-5.34a0.8,0.8,0,0,1,1.229,0,1.094,1.094,0,0,1,0,1.4ZM23.615,20.323l0.006,0.006-7.786,8.187a0.964,0.964,0,0,1-1.6.113l-7.893-8.3,0.022-.022A12,12,0,1,1,23.615,20.323ZM15,2A10,10,0,0,0,8,19.133l-0.01.019,6.174,6.492c0.007-.012.021-0.017,0.028-0.029a0.959,0.959,0,0,0,1.624,0c0,0.005.01,0.008,0.013,0.013l6.244-6.566A9.991,9.991,0,0,0,15,2Zm0,16a6,6,0,1,1,6-6A6,6,0,0,1,15,18ZM15,8a4,4,0,1,0,4,4A4,4,0,0,0,15,8ZM57,23H56.95a4.475,4.475,0,0,1-8.9,0h-6.1a4.475,4.475,0,0,1-8.9,0H33a3,3,0,0,1-3-3V6a3,3,0,0,1,3-3H44a3,3,0,0,1,3,3V8h6a1.987,1.987,0,0,1,1.516.709L54.524,8.7l4.831,5.835A1.988,1.988,0,0,1,60,16v4A3,3,0,0,1,57,23Zm-4.5,2A2.5,2.5,0,1,0,50,22.5,2.5,2.5,0,0,0,52.5,25Zm-15,0A2.5,2.5,0,1,0,35,22.5,2.5,2.5,0,0,0,37.5,25ZM58,16a0.986,0.986,0,0,0-.345-0.742l-4.23-4.874A0.982,0.982,0,0,0,52.656,10H47v8H45V6a1,1,0,0,0-1-1H33a1,1,0,0,0-1,1V20a1,1,0,0,0,1,1h0.276a4.474,4.474,0,0,1,8.449,0h6.551a4.474,4.474,0,0,1,8.449,0H57a1,1,0,0,0,1-1V16ZM86,28H64a3,3,0,0,1-3-3V5.5A3.5,3.5,0,0,1,64.5,2h19A3.5,3.5,0,0,1,87,5.5V7.184A2.991,2.991,0,0,1,89,10V25A3,3,0,0,1,86,28ZM85,5.5A1.5,1.5,0,0,0,83.5,4h-19a1.5,1.5,0,0,0,0,3H85V5.5ZM87,15H80.5a2.5,2.5,0,0,0,0,5H87V15Zm0,7H80.5a4.5,4.5,0,0,1,0-9H87V10a1,1,0,0,0-1-1H64a1,1,0,0,0-1,1V25a1,1,0,0,0,1,1H86a1,1,0,0,0,1-1V22ZM67,23a1,1,0,0,1-1-1V13a1,1,0,0,1,2,0v9A1,1,0,0,1,67,23Zm13-5.5A1.5,1.5,0,1,1,81.5,19,1.5,1.5,0,0,1,80,17.5ZM105,30a15,15,0,1,1,15-15A15,15,0,0,1,105,30Zm6.071-3.509a10.058,10.058,0,0,1-3.869-1.95,5.831,5.831,0,0,1-1.3-2.632,4.516,4.516,0,0,1-1.8,0,5.831,5.831,0,0,1-1.3,2.632,10.06,10.06,0,0,1-3.869,1.95A12.97,12.97,0,0,0,111.071,26.491ZM105,20a4,4,0,0,0,4-4V13a4,4,0,0,0-8,0v3A4,4,0,0,0,105,20Zm0-18a13,13,0,0,0-8.233,23.058c0.949-.078,3.179-0.367,4.414-1.576a4.461,4.461,0,0,0,1.137-2.142A5.979,5.979,0,0,1,99,16V13a6,6,0,0,1,12,0v3a5.979,5.979,0,0,1-3.318,5.34,4.461,4.461,0,0,0,1.137,2.142c1.235,1.209,3.465,1.5,4.414,1.576A13,13,0,0,0,105,2Z"/>
</svg>
