<svg xmlns="http://www.w3.org/2000/svg" width="100" height="100" viewBox="0 0 100 100">
  <defs>
    <style>
      .cls-1 {
        fill: #888;
      }

      .cls-1, .cls-2 {
        fill-rule: evenodd;
      }

      .cls-2 {
        fill: #333;
      }
    </style>
  </defs>
  <path data-name="&gt;" class="cls-1" d="M13.033,40.984a0.981,0.981,0,0,1-.688-0.278L5.985,34.5l6.361-6.208a0.992,0.992,0,0,1,1.371,0,0.921,0.921,0,0,1,0,1.331l-5,4.882,5,4.882a0.921,0.921,0,0,1,0,1.331A0.982,0.982,0,0,1,13.033,40.984Zm70.934,0.031a0.98,0.98,0,0,0,.688-0.279l6.361-6.223-6.361-6.223a0.99,0.99,0,0,0-1.371,0,0.925,0.925,0,0,0,0,1.334l5,4.894-5,4.893a0.925,0.925,0,0,0,0,1.334A0.981,0.981,0,0,0,83.967,41.015Z"/>
  <path data-name="&gt;" class="cls-2" d="M13.033,16.984a0.981,0.981,0,0,1-.688-0.278L5.985,10.5,12.345,4.29a0.992,0.992,0,0,1,1.371,0,0.921,0.921,0,0,1,0,1.331l-5,4.882,5,4.882a0.921,0.921,0,0,1,0,1.331A0.982,0.982,0,0,1,13.033,16.984Zm69.934,0.031a0.98,0.98,0,0,0,.688-0.279l6.361-6.222L83.655,4.291a0.99,0.99,0,0,0-1.371,0,0.925,0.925,0,0,0,0,1.334l5,4.894-5,4.893a0.925,0.925,0,0,0,0,1.334A0.981,0.981,0,0,0,82.967,17.015Z"/>
</svg>
