<svg xmlns="http://www.w3.org/2000/svg" width="44" height="44"><defs><style>.cls-3{fill:none;stroke:#333;stroke-width:2px}.cls-2{fill-rule:evenodd;fill:#333}</style></defs><path id="Shape" d="M7 35H6a2 2 0 01-2-2l.005-6.994H30V11.992h6.793l5.171 7.422 1.052 1.4v13.284a.911.911 0 01-.983.906h-2.97M28 35H18" fill-rule="evenodd" stroke-linejoin="round" fill="none" stroke="#333" stroke-width="2"/><path id="Shape-2" data-name="Shape" class="cls-2" d="M5 27v2a1 1 0 01-2 0v-6a1 1 0 012 0v2h24V4a1 1 0 00-1-1H6a1 1 0 00-1 1v2H3V4a3 3 0 013-3h22a3 3 0 013 3v23H5z"/><circle id="Shape-3" data-name="Shape" class="cls-3" cx="34.5" cy="35.5" r="4.5"/><circle id="Shape-4" data-name="Shape" class="cls-3" cx="13.5" cy="35.5" r="4.5"/><rect id="Shape-5" data-name="Shape" x="39" y="27" width="4" height="2" rx="1" ry="1" fill="#333"/><path class="cls-2" d="M34 22h8a1 1 0 010 2h-8a1 1 0 010-2zm0-7h4.875l1 2H34a1 1 0 010-2zM1 9h7a1 1 0 011 1 1 1 0 01-1 1H1a1 1 0 01-1-1 1 1 0 011-1zm1 4h9a1 1 0 011 1 1 1 0 01-1 1H2a1 1 0 01-1-1 1 1 0 011-1zm1 4h5a1 1 0 011 1 1 1 0 01-1 1H3a1 1 0 01-1-1 1 1 0 011-1z"/></svg>