<svg xmlns="http://www.w3.org/2000/svg" width="190" height="40"><path d="M57.023 29.98h2.965V12.031h7V9.019H50.023v3.011h7v17.95zm12 0h2.968v-16h-2.97v16zm8.967-13.205v-2.759h-2.976V29.98h2.968v-7.905c0-3.474 1.916-5.36 5-5.36.21 0 .732 0 .971.03V13.96c-2.784 0-4.948.958-5.966 2.815zm22.876 5.36c0-4.881-3.264-8.175-7.845-8.175a7.772 7.772 0 00-7.965 8.085c0 4.731 3.414 8.021 8.534 8.021a7.966 7.966 0 006.258-2.575l-1.587-1.857a5.926 5.926 0 01-4.582 1.916c-3.144 0-5.39-1.763-5.749-4.548h12.87c.033-.268.063-.628.063-.867zm-7.845-5.749a4.949 4.949 0 015.09 4.552H87.927a4.947 4.947 0 015.091-4.552zm17.149 13.709c5.454 0 7.895-2.672 7.895-5.853 0-7.64-12.4-4.459-12.4-9.542 0-1.813 1.5-3.206 5.011-3.206a10.5 10.5 0 015.66 1.632l.973-2.378a12.064 12.064 0 00-6.641-1.848c-5.424 0-7.744 2.7-7.744 5.914 0 7.729 12.343 4.518 12.343 9.6 0 1.813-1.533 3.085-5.1 3.085a10.536 10.536 0 01-6.81-2.345l-1.09 2.319c1.65 1.552 4.746 2.622 7.9 2.622zm19.252-16.135a6.563 6.563 0 00-5.443 2.4V8.012h-2.969V29.98h2.969v-8.05c0-3.443 1.82-5.333 4.874-5.333 2.725 0 4.157 1.34 4.157 4.454v8.929h3v-9.133c0-4.671-2.725-6.887-6.588-6.887zM70.5 9a1.5 1.5 0 11-1.5 1.5A1.5 1.5 0 0170.5 9zM146 30.066A7.746 7.746 0 00153.969 22 7.984 7.984 0 10138 22a7.769 7.769 0 008 8.066zm0-2.5c-2.955 0-5.187-2.2-5.187-5.567s2.232-5.537 5.187-5.537 5.159 2.173 5.159 5.537-2.204 5.566-5.159 5.566zm18.293 2.47a6.451 6.451 0 01-5.314-2.575v8.517h-2.969L156 14h3v2.438a6.5 6.5 0 015.292-2.478c4.482 0 7.75 3.234 7.75 8.085 0 4.881-3.268 7.99-7.75 7.99zm-.233-13.561c-2.92 0-5.112 2.216-5.112 5.57 0 3.384 2.192 5.475 5.112 5.475 2.95 0 5.177-2.091 5.177-5.475 0-3.354-2.227-5.57-5.177-5.57zm14.257 10.9l6.252-6.168c2.845-2.725 3.444-4.3 3.444-6.338 0-3.437-2.909-5.9-6.937-5.9a9.53 9.53 0 00-7.6 3.174l2.036 1.767a6.585 6.585 0 015.36-2.276c2.935 0 4.181 1.318 4.181 3.474 0 1.318-.451 2.448-2.667 4.6l-8.377 8.235v2.037h13.968v-2.605h-9.657z" fill-rule="evenodd" fill="#222"/><path class="icon-path" d="M20 40A20 20 0 010 20a19.664 19.664 0 011.476-7.38A2 2 0 013.438 11H20a9 9 0 11-7.482 4H4.806A16 16 0 1020 4h-8.5A3.5 3.5 0 018 .5V0h13a1.981 1.981 0 01.519.077A19.99 19.99 0 0120 40zm0-15a5 5 0 10-5-5 5 5 0 005 5z" fill="#1976d2" fill-rule="evenodd"/></svg>