<svg xmlns="http://www.w3.org/2000/svg" width="44" height="44" viewBox="0 0 44 44">
  <defs>
    <style>
      .cls-1 {
        fill: #333;
        fill-rule: evenodd;
      }
    </style>
  </defs>
  <path id="wheel" class="cls-1" d="M39.473,30H36.888a17.152,17.152,0,0,0,2.385-3.622,0.974,0.974,0,0,1,.751-1.8,16.8,16.8,0,0,0,.929-4.607,0.976,0.976,0,0,1,0-1.952,16.8,16.8,0,0,0-.929-4.607,0.974,0.974,0,0,1-.751-1.8,17.1,17.1,0,0,0-2.608-3.91,0.974,0.974,0,0,1-1.376-1.376,17.106,17.106,0,0,0-3.911-2.607,0.974,0.974,0,0,1-1.795-.75,16.8,16.8,0,0,0-4.608-.929,0.976,0.976,0,0,1-1.951,0,16.8,16.8,0,0,0-4.608.929,0.974,0.974,0,0,1-1.795.75,17.106,17.106,0,0,0-3.911,2.607,0.974,0.974,0,0,1-1.376,1.376,17.1,17.1,0,0,0-2.608,3.91,0.974,0.974,0,0,1-.751,1.8,16.793,16.793,0,0,0-.929,4.607,0.976,0.976,0,0,1,0,1.952,16.485,16.485,0,0,0,.418,2.819c-0.011.007-.026,0.011-0.038,0.017a0.965,0.965,0,0,1-.253.863,0.992,0.992,0,0,1-1.641-.4l-0.038,0A19,19,0,1,1,39.473,30ZM24,5A13.974,13.974,0,0,1,35.047,27.565a0.968,0.968,0,0,1-.216.328,1,1,0,0,1-1.491-1.315l-0.047-.034a11.984,11.984,0,1,0-21.245-8.488H12.019a0.972,0.972,0,0,1-.282.682,1,1,0,0,1-1.654-1A13.983,13.983,0,0,1,24,5Zm0,4a9.961,9.961,0,0,1,4.68,18.775,1,1,0,0,1-1.364-1.459A0.964,0.964,0,0,1,27.66,26.1a7.991,7.991,0,1,0-11.654-7.143,0.966,0.966,0,0,1-.269.783,1,1,0,0,1-1.7-.742H14A10,10,0,0,1,24,9Z"/>
  <path class="cls-1" d="M40,44H25a1,1,0,0,1,0-2H40a2,2,0,0,0,2-2V34a2,2,0,0,0-2-2H26.824l0-.035a0.983,0.983,0,0,1,.115-1.953V30H40a4,4,0,0,1,4,4v6A4,4,0,0,1,40,44Z"/>
  <path class="cls-1" d="M29,34H40a1,1,0,0,1,0,2H29A1,1,0,0,1,29,34Zm-2,4H40a1,1,0,0,1,1,1h0a1,1,0,0,1-1,1H27a1,1,0,0,1-1-1h0A1,1,0,0,1,27,38Z"/>
  <path id="hand" class="cls-1" d="M23.813,33.344L22.094,42S21.719,44,18,44H7.469a3.55,3.55,0,0,1-2.147-.96A2.732,2.732,0,0,1,3.25,44H2.75A2.75,2.75,0,0,1,0,41.25v-8.5A2.75,2.75,0,0,1,2.75,30h0.5a2.73,2.73,0,0,1,1.837.717C5.647,30.5,9,29.12,9,27V23a1.84,1.84,0,0,1,2-2c2.688,0,5,.625,5,4v4h4a3.9,3.9,0,0,1,2.8,1.016A3.37,3.37,0,0,1,23.813,33.344ZM4,32.75A0.75,0.75,0,0,0,3.25,32H2.75a0.75,0.75,0,0,0-.75.75v8.5a0.75,0.75,0,0,0,.75.75h0.5A0.75,0.75,0,0,0,4,41.25v-8.5Zm17.321-1.33a1.9,1.9,0,0,0-1.2-.445H14.887a0.857,0.857,0,0,1-.861-0.847V25.493a2.468,2.468,0,0,0-.819-2.131A4.69,4.69,0,0,0,11,23l-0.019,3.432A5.508,5.508,0,0,1,8.4,31.021a9.618,9.618,0,0,1-2.222,1.207c-0.014,0-.084.007-0.1,0.007l-0.05.014v8.079c0.007,0.028.014,0.064,0.022,0.1A1.9,1.9,0,0,0,7.914,42H18.106c2.29,0,2.476-1.475,2.534-1.962A0.076,0.076,0,0,0,20.647,40l1.328-6.77A1.972,1.972,0,0,0,21.321,31.419Z"/>
</svg>
