<svg xmlns="http://www.w3.org/2000/svg" width="44" height="44" viewBox="0 0 44 44">
  <defs>
    <style>
      .cls-1, .cls-3 {
        fill: none;
        stroke: #333;
        stroke-width: 2px;
      }

      .cls-1 {
        stroke-linejoin: round;
      }

      .cls-1, .cls-2 {
        fill-rule: evenodd;
      }

      .cls-2, .cls-4 {
        fill: #333;
      }
    </style>
  </defs>
  <path id="Shape" class="cls-1" d="M7,35H6a2,2,0,0,1-2-2l0.005-6.994H30V11.992h6.793l5.171,7.422,1.052,1.4s0,10.155,0,13.284a0.911,0.911,0,0,1-.983.906H39.063M28,35H18"/>
  <path id="Shape-2" data-name="Shape" class="cls-2" d="M5,27v2a1,1,0,0,1-2,0V23a1,1,0,0,1,2,0v2H29V4a1,1,0,0,0-1-1H6A1,1,0,0,0,5,4V6H3V4A3,3,0,0,1,6,1H28a3,3,0,0,1,3,3V27H5Z"/>
  <circle id="Shape-3" data-name="Shape" class="cls-3" cx="34.5" cy="35.5" r="4.5"/>
  <circle id="Shape-4" data-name="Shape" class="cls-3" cx="13.5" cy="35.5" r="4.5"/>
  <rect id="Shape-5" data-name="Shape" class="cls-4" x="39" y="27" width="4" height="2" rx="1" ry="1"/>
  <path class="cls-2" d="M34,22h8a1,1,0,0,1,0,2H34A1,1,0,0,1,34,22Zm0-7h4.875l1,2H34A1,1,0,0,1,34,15Z"/>
  <path class="cls-2" d="M1,9H8a1,1,0,0,1,1,1H9a1,1,0,0,1-1,1H1a1,1,0,0,1-1-1H0A1,1,0,0,1,1,9Zm1,4h9a1,1,0,0,1,1,1h0a1,1,0,0,1-1,1H2a1,1,0,0,1-1-1H1A1,1,0,0,1,2,13Zm1,4H8a1,1,0,0,1,1,1H9a1,1,0,0,1-1,1H3a1,1,0,0,1-1-1H2A1,1,0,0,1,3,17Z"/>
</svg>
