<svg xmlns="http://www.w3.org/2000/svg" width="44" height="44" viewBox="0 0 44 44">
  <defs>
    <style>
      .cls-1, .cls-4 {
        fill: none;
      }

      .cls-1, .cls-3, .cls-4 {
        stroke: #333;
        stroke-linecap: round;
        stroke-linejoin: round;
        stroke-width: 2px;
      }

      .cls-1, .cls-2, .cls-3 {
        fill-rule: evenodd;
      }

      .cls-2 {
        fill: #333;
      }

      .cls-3 {
        fill: #fff;
      }
    </style>
  </defs>
  <path class="cls-1" d="M36,43H8a3,3,0,0,1-3-3V13a2.981,2.981,0,0,1,.983-2.207,3.27,3.27,0,0,1,.6-0.522L19.032,1.8a5.858,5.858,0,0,1,6.033.067l12.319,8.4a3.6,3.6,0,0,1,.549.453A2.98,2.98,0,0,1,39,13V40A3,3,0,0,1,36,43Z"/>
  <path class="cls-2" d="M22,7a3,3,0,1,1-3,3A3,3,0,0,1,22,7Zm0,2a1,1,0,1,1-1,1A1,1,0,0,1,22,9Z"/>
  <path class="cls-3" d="M15,33L29,19"/>
  <circle class="cls-4" cx="27.5" cy="31.5" r="3.5"/>
  <circle class="cls-4" cx="16.5" cy="20.5" r="3.5"/>
</svg>
