<svg xmlns="http://www.w3.org/2000/svg" width="44" height="44"><defs><style>.cls-1{fill:#333;fill-rule:evenodd}</style></defs><path id="wheel" class="cls-1" d="M39.473 30h-2.585a17.152 17.152 0 002.385-3.622.974.974 0 01.751-1.8 16.8 16.8 0 00.929-4.607.976.976 0 010-1.952 16.8 16.8 0 00-.929-4.607.974.974 0 01-.751-1.8 17.1 17.1 0 00-2.608-3.91.974.974 0 01-1.376-1.376 17.106 17.106 0 00-3.911-2.607.974.974 0 01-1.795-.75 16.8 16.8 0 00-4.608-.929.976.976 0 01-1.951 0 16.8 16.8 0 00-4.608.929.974.974 0 01-1.795.75 17.106 17.106 0 00-3.911 2.607.974.974 0 01-1.376 1.376 17.1 17.1 0 00-2.608 3.91.974.974 0 01-.751 1.8 16.793 16.793 0 00-.929 4.607.976.976 0 010 1.952 16.485 16.485 0 00.418 2.819c-.011.007-.026.011-.038.017a.965.965 0 01-.253.863.992.992 0 01-1.641-.4h-.038A19 19 0 1139.473 30zM24 5a13.974 13.974 0 0111.047 22.565.968.968 0 01-.216.328 1 1 0 01-1.491-1.315l-.047-.034a11.984 11.984 0 10-21.245-8.488h-.029a.972.972 0 01-.282.682 1 1 0 01-1.654-1A13.983 13.983 0 0124 5zm0 4a9.961 9.961 0 014.68 18.775 1 1 0 01-1.364-1.459.964.964 0 01.344-.216 7.991 7.991 0 10-11.654-7.143.966.966 0 01-.269.783 1 1 0 01-1.7-.742H14A10 10 0 0124 9z"/><path class="cls-1" d="M40 44H25a1 1 0 010-2h15a2 2 0 002-2v-6a2 2 0 00-2-2H26.824v-.035a.983.983 0 01.115-1.953V30H40a4 4 0 014 4v6a4 4 0 01-4 4z"/><path class="cls-1" d="M29 34h11a1 1 0 010 2H29a1 1 0 010-2zm-2 4h13a1 1 0 011 1 1 1 0 01-1 1H27a1 1 0 01-1-1 1 1 0 011-1z"/><path id="hand" class="cls-1" d="M23.813 33.344L22.094 42s-.375 2-4.094 2H7.469a3.55 3.55 0 01-2.147-.96A2.732 2.732 0 013.25 44h-.5A2.75 2.75 0 010 41.25v-8.5A2.75 2.75 0 012.75 30h.5a2.73 2.73 0 011.837.717C5.647 30.5 9 29.12 9 27v-4a1.84 1.84 0 012-2c2.688 0 5 .625 5 4v4h4a3.9 3.9 0 012.8 1.016 3.37 3.37 0 011.013 3.328zM4 32.75a.75.75 0 00-.75-.75h-.5a.75.75 0 00-.75.75v8.5a.75.75 0 00.75.75h.5a.75.75 0 00.75-.75v-8.5zm17.321-1.33a1.9 1.9 0 00-1.2-.445h-5.234a.857.857 0 01-.861-.847v-4.635a2.468 2.468 0 00-.819-2.131A4.69 4.69 0 0011 23l-.019 3.432A5.508 5.508 0 018.4 31.021a9.618 9.618 0 01-2.222 1.207c-.014 0-.084.007-.1.007l-.05.014v8.079l.022.1A1.9 1.9 0 007.914 42h10.192c2.29 0 2.476-1.475 2.534-1.962a.076.076 0 00.007-.038l1.328-6.77a1.972 1.972 0 00-.654-1.811z"/></svg>