<svg xmlns="http://www.w3.org/2000/svg" width="44" height="44"><defs><style>.cls-4{fill:none;stroke:#333;stroke-linecap:round;stroke-linejoin:round;stroke-width:2px}</style></defs><path d="M36 43H8a3 3 0 01-3-3V13a2.981 2.981 0 01.983-2.207 3.27 3.27 0 01.6-.522L19.032 1.8a5.858 5.858 0 016.033.067l12.319 8.4a3.6 3.6 0 01.549.453A2.98 2.98 0 0139 13v27a3 3 0 01-3 3z" fill-rule="evenodd" stroke="#333" stroke-linecap="round" stroke-linejoin="round" stroke-width="2" fill="none"/><path d="M22 7a3 3 0 11-3 3 3 3 0 013-3zm0 2a1 1 0 11-1 1 1 1 0 011-1z" fill="#333" fill-rule="evenodd"/><path d="M15 33l14-14" fill="#fff" fill-rule="evenodd" stroke="#333" stroke-linecap="round" stroke-linejoin="round" stroke-width="2"/><circle class="cls-4" cx="27.5" cy="31.5" r="3.5"/><circle class="cls-4" cx="16.5" cy="20.5" r="3.5"/></svg>