<svg xmlns="http://www.w3.org/2000/svg" width="0" height="0" class="hidden">
  <symbol id="phone" viewBox="0 0 9 12">
    <defs>
      <style>
        .cls-1 {
          fill: #222;
          fill-rule: evenodd;
        }
      </style>
    </defs>
    <path data-name="Shape 51 copy 4" class="cls-1" d="M310.53,43.348a22.378,22.378,0,0,0,2.09,1.179,0.6,0.6,0,0,1,.314.827l-0.119.417a0.956,0.956,0,0,1-.57.7,4.408,4.408,0,0,1-1.51.532c-1.448.03-2.728-1.179-3.624-2.19a13.251,13.251,0,0,1-1.517-2.078,13.082,13.082,0,0,1-1.069-2.331c-0.442-1.27-.866-2.966-0.116-4.186a4.36,4.36,0,0,1,1.223-1.02,0.98,0.98,0,0,1,.9-0.135l0.427,0.107a0.623,0.623,0,0,1,.552.7c-0.007.927-.021,1.592,0.011,2.354,0.012,0.316-.112.361-0.4,0.472l-0.467.18a0.553,0.553,0,0,0-.455.677,7.768,7.768,0,0,0,2.5,4.26,0.567,0.567,0,0,0,.824-0.05l0.391-.307a0.439,0.439,0,0,1,.617-0.107h0Z" transform="translate(-304 -35)"/>
  </symbol>
  <symbol id="phone-inline" viewBox="0 0 21 21">
    <path fill-rule="evenodd" clip-rule="evenodd" d="M18.9562 15.97L18.9893 16.3282C19.0225 16.688 18.9784 17.0504 18.8603 17.3911C18.6223 18.086 18.2725 18.7374 17.8248 19.3198L17.7228 19.4524L17.6003 19.5662C16.8841 20.2314 15.9875 20.6686 15.0247 20.8243C14.0374 21.0619 13.0068 21.0586 12.0201 20.814L11.9327 20.7924L11.8476 20.763C10.712 20.3703 9.65189 19.7871 8.71296 19.0385C8.03805 18.582 7.41051 18.0593 6.83973 17.4779L6.81497 17.4527L6.79112 17.4267C4.93379 15.3963 3.51439 13.0063 2.62127 10.4052L2.6087 10.3686L2.59756 10.3315C2.36555 9.5598 2.21268 8.76667 2.14121 7.9643C1.94289 6.79241 1.95348 5.59444 2.17289 4.42568L2.19092 4.32964L2.21822 4.23581C2.50215 3.26018 3.0258 2.37193 3.7404 1.65124C4.37452 0.908181 5.21642 0.370416 6.15867 0.107283L6.31009 0.0649959L6.46626 0.0468886C7.19658 -0.0377903 7.93564 -0.00763772 8.65659 0.136237C9.00082 0.203673 9.32799 0.34095 9.61768 0.540011L9.90227 0.735566L10.1048 1.01522C10.4774 1.52971 10.7173 2.12711 10.8045 2.75455C10.8555 2.95106 10.9033 3.13929 10.9499 3.32228C11.0504 3.71718 11.1446 4.08764 11.2499 4.46408C11.5034 5.03517 11.6255 5.65688 11.6059 6.28327L11.5984 6.52137L11.5353 6.75107C11.3812 7.31112 11.0546 7.68722 10.8349 7.8966C10.6059 8.11479 10.3642 8.2737 10.18 8.38262C9.89673 8.55014 9.57964 8.69619 9.32537 8.8079C9.74253 10.2012 10.5059 11.4681 11.5455 12.4901C11.7801 12.3252 12.0949 12.1097 12.412 11.941C12.6018 11.8401 12.8614 11.7177 13.1641 11.6357C13.4565 11.5565 13.9301 11.4761 14.4706 11.6169L14.6882 11.6736L14.8878 11.7772C15.4419 12.0649 15.9251 12.4708 16.3035 12.9654C16.5807 13.236 16.856 13.4937 17.1476 13.7666C17.2974 13.9068 17.4515 14.0511 17.6124 14.2032C18.118 14.5805 18.5261 15.0751 18.8003 15.6458L18.9562 15.97ZM16.3372 15.7502C16.6216 15.9408 16.8496 16.2039 16.9977 16.5121C17.0048 16.5888 16.9952 16.6661 16.9697 16.7388C16.8021 17.2295 16.5553 17.6895 16.2391 18.1009C15.795 18.5134 15.234 18.7788 14.6329 18.8608C13.9345 19.0423 13.2016 19.0464 12.5012 18.8728C11.5558 18.5459 10.675 18.0561 9.8991 17.4258C9.30961 17.0338 8.76259 16.5817 8.26682 16.0767C6.59456 14.2487 5.31682 12.0971 4.51287 9.75567C4.31227 9.08842 4.18279 8.40192 4.12658 7.70756C3.95389 6.74387 3.95792 5.75691 4.13855 4.79468C4.33628 4.11526 4.70731 3.49868 5.21539 3.00521C5.59617 2.53588 6.11383 2.19633 6.69661 2.03358C7.22119 1.97276 7.75206 1.99466 8.26981 2.09849C8.34699 2.11328 8.42029 2.14388 8.48501 2.18836C8.68416 2.46334 8.80487 2.78705 8.83429 3.12504C8.89113 3.34235 8.94665 3.56048 9.00218 3.77864C9.12067 4.24418 9.2392 4.70987 9.37072 5.16815C9.5371 5.49352 9.61831 5.85557 9.60687 6.22066C9.51714 6.54689 8.89276 6.81665 8.28746 7.07816C7.71809 7.32415 7.16561 7.56284 7.0909 7.83438C7.07157 8.17578 7.12971 8.51712 7.26102 8.83297C7.76313 10.9079 8.87896 12.7843 10.4636 14.2184C10.6814 14.4902 10.9569 14.7105 11.2702 14.8634C11.5497 14.9366 12.0388 14.5907 12.5428 14.2342C13.0783 13.8555 13.6307 13.4648 13.9663 13.5523C14.295 13.7229 14.5762 13.9719 14.785 14.2773C15.1184 14.6066 15.4631 14.9294 15.808 15.2523C15.9849 15.418 16.1618 15.5836 16.3372 15.7502Z" fill="#fff"></path>
  </symbol>
  <symbol id="burger" viewBox="0 0 18 16">
    <defs>
      <style>
        .cls-2 {
          fill: #fff;
          fill-rule: evenodd;
        }
      </style>
    </defs>
    <path data-name="Rounded Rectangle 81 copy 2" class="cls-2" d="M330,114h16a1,1,0,0,1,1,1h0a1,1,0,0,1-1,1H330a1,1,0,0,1-1-1h0A1,1,0,0,1,330,114Zm0,7h16a1,1,0,0,1,1,1h0a1,1,0,0,1-1,1H330a1,1,0,0,1-1-1h0A1,1,0,0,1,330,121Zm0,7h16a1,1,0,0,1,1,1h0a1,1,0,0,1-1,1H330a1,1,0,0,1-1-1h0A1,1,0,0,1,330,128Z" transform="translate(-329 -114)"></path>
  </symbol>
</svg>