<svg xmlns="http://www.w3.org/2000/svg" width="0" height="0" class="hidden"><symbol id="phone" viewBox="0 0 9 12"><defs><style>.cls-1{fill:#222;fill-rule:evenodd}</style></defs><path data-name="Shape 51 copy 4" class="cls-1" d="M310.53 43.348a22.378 22.378 0 002.09 1.179.6.6 0 01.314.827l-.119.417a.956.956 0 01-.57.7 4.408 4.408 0 01-1.51.532c-1.448.03-2.728-1.179-3.624-2.19a13.251 13.251 0 01-1.517-2.078 13.082 13.082 0 01-1.069-2.331c-.442-1.27-.866-2.966-.116-4.186a4.36 4.36 0 011.223-1.02.98.98 0 01.9-.135l.427.107a.623.623 0 01.552.7c-.007.927-.021 1.592.011 2.354.012.316-.112.361-.4.472l-.467.18a.553.553 0 00-.455.677 7.768 7.768 0 002.5 4.26.567.567 0 00.824-.05l.391-.307a.439.439 0 01.617-.107z" transform="translate(-304 -35)"/></symbol><symbol id="burger" viewBox="0 0 18 16"><defs><style>.cls-1{fill:#fff;fill-rule:evenodd}</style></defs><path data-name="Rounded Rectangle 81 copy 2" class="cls-1" d="M330 114h16a1 1 0 011 1 1 1 0 01-1 1h-16a1 1 0 01-1-1 1 1 0 011-1zm0 7h16a1 1 0 011 1 1 1 0 01-1 1h-16a1 1 0 01-1-1 1 1 0 011-1zm0 7h16a1 1 0 011 1 1 1 0 01-1 1h-16a1 1 0 01-1-1 1 1 0 011-1z" transform="translate(-329 -114)"/></symbol></svg>