<svg id="social.svg" xmlns="http://www.w3.org/2000/svg" xmlns:xlink="http://www.w3.org/1999/xlink" width="435" height="155" viewBox="0 0 435 155">
  <defs>
    <style>
      .cls-1, .cls-3 {
        fill: #fff;
      }

      .cls-1 {
        fill-opacity: 0;
      }

      .cls-2 {
        fill: #46aade;
      }

      .cls-14, .cls-15, .cls-16, .cls-17, .cls-19, .cls-3, .cls-43, .cls-8 {
        fill-rule: evenodd;
      }

      .cls-4 {
        fill: url(#linear-gradient);
      }

      .cls-5 {
        fill: #0078ff;
      }

      .cls-6 {
        fill: #ea4c89;
      }

      .cls-7 {
        fill: #f3f3f3;
      }

      .cls-8 {
        fill: #333;
      }

      .cls-9 {
        fill: #f17d13;
      }

      .cls-10 {
        fill: #007ee5;
      }

      .cls-11 {
        fill: #3ebdf4;
      }

      .cls-12 {
        fill: #ea3c00;
      }

      .cls-13 {
        fill: #ededed;
      }

      .cls-14 {
        fill: #ea4335;
      }

      .cls-15 {
        fill: #4285f4;
      }

      .cls-16 {
        fill: #34a853;
      }

      .cls-17 {
        fill: #fbbc05;
      }

      .cls-18 {
        fill: #168de2;
      }

      .cls-19 {
        fill: #ffbc3b;
      }

      .cls-20 {
        fill: #22a7f0;
      }

      .cls-21 {
        fill: url(#linear-gradient-2);
      }

      .cls-22 {
        fill: #e62117;
      }

      .cls-23 {
        fill: #2aa1da;
      }

      .cls-24 {
        fill: #00aff0;
      }

      .cls-25 {
        fill: #65bc54;
      }

      .cls-26 {
        fill: #7b519d;
      }

      .cls-27 {
        fill: #547093;
      }

      .cls-28 {
        fill: #53a9d7;
      }

      .cls-29 {
        fill: #30baff;
      }

      .cls-30 {
        fill: #c53220;
      }

      .cls-31 {
        fill: #1760a7;
      }

      .cls-32 {
        fill: #f5b53c;
      }

      .cls-33 {
        fill: #ee4056;
      }

      .cls-34 {
        fill: #2f46d7;
      }

      .cls-35 {
        fill: #00688a;
      }

      .cls-36 {
        fill: #0083be;
      }

      .cls-37 {
        fill: #24d666;
      }

      .cls-38 {
        fill: #ff4500;
      }

      .cls-39 {
        fill: #31a9ff;
      }

      .cls-40 {
        fill: #1da1f2;
      }

      .cls-41 {
        fill: #c20724;
      }

      .cls-42 {
        fill: #ffdb4c;
      }

      .cls-43 {
        fill: #ed1c24;
      }

      .cls-44 {
        fill: #db4437;
      }

      .cls-45 {
        fill: #ff9205;
      }

      .cls-46 {
        fill: #3b5998;
      }

      .cls-47 {
        fill: #0077FF;
      }

      .cls-48 {
        fill: #eb1c00;
      }
    </style>
    <linearGradient id="linear-gradient" x1="362" y1="153" x2="393" y2="122" gradientUnits="userSpaceOnUse">
      <stop offset="0" stop-color="#006add"/>
      <stop offset="1" stop-color="#ff1981"/>
    </linearGradient>
    <linearGradient id="linear-gradient-2" x1="145.252" y1="122" x2="129.748" y2="153" gradientUnits="userSpaceOnUse">
      <stop offset="0" stop-color="#9e42b4"/>
      <stop offset="0.067" stop-color="#9e42b4"/>
      <stop offset="0.473" stop-color="#e5566f"/>
      <stop offset="1" stop-color="#fdc76d"/>
    </linearGradient>
  </defs>
  <rect class="cls-1" width="435" height="155"/>
  <g>
    <rect id="Rounded_Rectangle_147" data-name="Rounded Rectangle 147" class="cls-2" x="122" y="82" width="31" height="31" rx="2" ry="2"/>
    <path class="cls-3" d="M1024.01,448.989a3.992,3.992,0,1,1,4-3.992A4,4,0,0,1,1024.01,448.989Zm1.08-1.666c-0.05.061-.06,0.235,0.07,0.181a2.711,2.711,0,0,0,.41-0.651,0.041,0.041,0,0,0,.02.026,0.27,0.27,0,0,0,.02-0.126c0.01-.01.02-0.041,0.01-0.009a0.181,0.181,0,0,0-.02-0.125,0.87,0.87,0,0,0-.15.21c-0.1.13-.33,0.137-0.27,0.356a0.33,0.33,0,0,1-.03-0.138,0.05,0.05,0,0,1-.05.03h0a1.572,1.572,0,0,1,.07-0.34,0.9,0.9,0,0,1-.07.138,0.148,0.148,0,0,0-.09.021,0.24,0.24,0,0,0,.09.181h0l0.01,0A0.994,0.994,0,0,1,1025.09,447.323Zm-1.08-5.253a2.989,2.989,0,0,0-.8.111,1.085,1.085,0,0,1-.18.132,0.423,0.423,0,0,0-.22.107,0.231,0.231,0,0,1-.07.209,1.554,1.554,0,0,0-.26.067,2.232,2.232,0,0,1-.24.367c0.19,0.03-.04.171-0.14,0.255a1.51,1.51,0,0,0-.23.29c-0.05.064-.13,0.07-0.17,0.131a1.474,1.474,0,0,0-.29.394,1.143,1.143,0,0,0-.15.466,0.926,0.926,0,0,0,.27.948,1.254,1.254,0,0,0,.42-0.044,0.233,0.233,0,0,1,.37.016c0.08,0.14.16-.014,0.24,0.052a1.245,1.245,0,0,1,.08.3c-0.16.162,0.23,0.464,0.32,0.6a0.842,0.842,0,0,1,.14.393,0.35,0.35,0,0,0,.09.461c0.16,0.188.32,0.387,0.47,0.575a2.806,2.806,0,0,0,.35.023c0.06,0,.12-0.006.19-0.01a0.523,0.523,0,0,0,.23-0.264c0.02-.083.21-0.107,0.16-0.255s0.07-.224.21-0.3a0.389,0.389,0,0,0,.21-0.447,2.786,2.786,0,0,1-.07-0.48,2.521,2.521,0,0,1,.26-0.425,2.052,2.052,0,0,0,.43-0.727,0.705,0.705,0,0,0,.04-0.345,1.506,1.506,0,0,1-.48.162,0.78,0.78,0,0,0-.38-0.365,1.355,1.355,0,0,1-.29-0.492,1.8,1.8,0,0,1-.31-0.466,0.808,0.808,0,0,1,.44.444,0.838,0.838,0,0,0,.3.333,2.642,2.642,0,0,0,.15.373,1.013,1.013,0,0,0,.55-0.292c-0.02-.092.07-0.124,0.14-0.142a0.381,0.381,0,0,1,.06-0.141c0.04-.059-0.01-0.136.05-0.131a0.284,0.284,0,0,0-.08-0.242c-0.05-.053-0.13-0.033-0.19-0.084a0.377,0.377,0,0,0-.08-0.127c-0.02.05,0.01,0.217-.09,0.178-0.14.044-.07-0.079-0.17-0.135-0.01.152-.06-0.018-0.12-0.057a0.367,0.367,0,0,1-.17-0.189,1.771,1.771,0,0,1,.4.2,0.079,0.079,0,0,0,.1-0.024c0.06-.071.09,0.05,0.12,0.071a1.032,1.032,0,0,0,.46-0.017,0.46,0.46,0,0,0,.26.152c0.04,0.077-.03.015-0.02,0.042a0.285,0.285,0,0,0,.15.113,0.083,0.083,0,0,0-.01-0.113,1.836,1.836,0,0,1,.27.453c0.05,0.077.11,0.226,0.17,0.353A2.939,2.939,0,0,0,1024.01,442.07Zm0.74,0.566a2.547,2.547,0,0,0-.27-0.224c0-.082.13-0.188,0.16-0.057-0.03,0-.04.038-0.05,0.052a1.1,1.1,0,0,1,.42.41,0.162,0.162,0,0,1-.18-0.026C1024.76,442.8,1024.7,442.654,1024.75,442.636Zm0.07-.3a0.059,0.059,0,0,0,.01-0.043c0.05,0.015.1,0.122,0.15,0.133C1024.93,442.484,1024.84,442.365,1024.82,442.334Zm-0.72.241c-0.09.014-.18,0.133-0.27,0.056a0.506,0.506,0,0,1,.03-0.211c0.09-.1.03,0,0.12-0.034a0.033,0.033,0,0,1-.02.029s0.53,0.106.36,0.212A0.338,0.338,0,0,1,1024.1,442.575Zm0.12,0.315c-0.01.024,0.05,0.514-.12,0.388a0.089,0.089,0,0,0-.13.012,0.463,0.463,0,0,1-.27-0.007,0.229,0.229,0,0,0-.26-0.033c-0.13.122,0.02,0.159-.17,0.11-0.12-.028-0.08-0.138-0.24-0.1a0.245,0.245,0,0,1-.08-0.056,2.2,2.2,0,0,1,.1-0.224c-0.12-.115-0.6.276-0.72,0.177,0-.021.31-0.265,0.36-0.311a0.78,0.78,0,0,1,.35-0.242c0.1-.068.16,0.043,0.21,0.136,0.11,0.19-.13.1-0.13,0.2,0.13,0.047.12,0.016,0.2-.077,0.06-.062-0.01-0.135.09-0.083,0.05-.048-0.31-0.257-0.11-0.31-0.04.046,0.25,0.189,0.15,0.263,0.11,0.13.04,0.22,0.16,0.241a0.318,0.318,0,0,1,0-.1,0.052,0.052,0,0,1,.04.013,0.915,0.915,0,0,1-.05-0.164c0.08,0.016.03,0.037,0.05-.021a0.1,0.1,0,0,1,.1,0c-0.07.089,0.06,0.048-.01,0.129a0.275,0.275,0,0,1,.07.1A0.809,0.809,0,0,0,1024.22,442.89Zm-1.24-.022a0.143,0.143,0,0,0,.06-0.012,2,2,0,0,0,.07-0.225A0.531,0.531,0,0,0,1022.98,442.868Zm-0.24-.232v-0.007a0.1,0.1,0,0,0,.05-0.032C1022.77,442.591,1022.76,442.642,1022.74,442.636Zm-1.43-3.3a1.894,1.894,0,0,1-.63,1.313v0.624a4.959,4.959,0,0,0-1.69,3.719,4.894,4.894,0,0,0,.11,1.019h-5.12a9.194,9.194,0,0,1,.19-2.618c0.3-.5.38-0.608,1.67-1.067a15.4,15.4,0,0,0,1.59-.619l0.01-1.058a1.894,1.894,0,0,1-.63-1.313,0.7,0.7,0,0,1-.63-0.628c-0.02-.233.04-0.882,0.41-0.817a5.824,5.824,0,0,1-.11-1.159,2.779,2.779,0,0,1,5.16,0,5.824,5.824,0,0,1-.11,1.159c0.37-.065.43,0.584,0.41,0.817A0.7,0.7,0,0,1,1021.31,439.334Z" transform="translate(-883 -344)"/>
  </g>
  <g id="Flickr">
    <rect id="Rounded_Rectangle_154" data-name="Rounded Rectangle 154" class="cls-4" x="362" y="122" width="31" height="31" rx="2" ry="2"/>
    <path id="Ellipse_78_copy" data-name="Ellipse 78 copy" class="cls-3" d="M1256.5,478a3.5,3.5,0,1,1-3.5,3.5A3.5,3.5,0,0,1,1256.5,478Zm8,0a3.5,3.5,0,1,1-3.5,3.5A3.5,3.5,0,0,1,1264.5,478Z" transform="translate(-883 -344)"/>
  </g>
  <g id="Behance">
    <rect id="Rounded_Rectangle_155" data-name="Rounded Rectangle 155" class="cls-5" x="402" y="2" width="31" height="31" rx="2" ry="2"/>
    <path class="cls-3" d="M1308.5,357h-5a0.5,0.5,0,0,1,0-1h5A0.5,0.5,0,0,1,1308.5,357Zm-2.5,2a4,4,0,0,1,4,4h-6.31a2.125,2.125,0,0,0,2.31,2.313,2.013,2.013,0,0,0,2.11-1.313h1.75A3.994,3.994,0,1,1,1306,359Zm2.07,3a2.217,2.217,0,0,0-2.07-1.281,2.138,2.138,0,0,0-2.14,1.281h4.21Zm-10.57,5H1292V356h5a3,3,0,0,1,2.51,4.641A3.5,3.5,0,0,1,1297.5,367Zm-0.5-9h-3v2h3A1,1,0,0,0,1297,358Zm0.5,4H1294v3h3.5A1.5,1.5,0,0,0,1297.5,362Z" transform="translate(-883 -344)"/>
  </g>
  <g id="Dribbble">
    <rect id="Rounded_Rectangle_156" data-name="Rounded Rectangle 156" class="cls-6" x="402" y="42" width="31" height="31" rx="2" ry="2"/>
    <path class="cls-3" d="M1300.5,408a6.5,6.5,0,1,1,6.5-6.5A6.5,6.5,0,0,1,1300.5,408Zm4.5-4.618a6.024,6.024,0,0,0-1.66-.257,6.229,6.229,0,0,0-.72.054,12.372,12.372,0,0,1,.3,2.528A4.916,4.916,0,0,0,1305,403.381Zm-3.7,2.913c0-.11.01-0.217,0.01-0.327a10.937,10.937,0,0,0-.27-2.376,6.146,6.146,0,0,0-2.75,2.229,4.829,4.829,0,0,0,2.21.553A5.043,5.043,0,0,0,1301.3,406.294Zm-4.3-1.413a7.77,7.77,0,0,1,3.57-2.852c-0.12-.328-0.27-0.648-0.42-0.96a7.506,7.506,0,0,1-4.5.158c0,0.091-.03.178-0.03,0.272A4.847,4.847,0,0,0,1297,404.881Zm0.48-7.181a4.866,4.866,0,0,0-1.48,1.916,5.987,5.987,0,0,0,1.66.258,6.09,6.09,0,0,0,1.62-.231A10.974,10.974,0,0,0,1297.48,397.7Zm1.52-.818a12.373,12.373,0,0,1,1.8,2.1,6.209,6.209,0,0,0,1.9-1.811,4.789,4.789,0,0,0-2.2-.547A4.848,4.848,0,0,0,1299,396.882Zm5.01,1.251a7.681,7.681,0,0,1-2.38,2.257,12.588,12.588,0,0,1,.52,1.208,7.381,7.381,0,0,1,3.2.173c0-.092.02-0.179,0.02-0.272A4.843,4.843,0,0,0,1304.01,398.133Z" transform="translate(-883 -344)"/>
  </g>
  <g id="Li">
    <rect id="Rounded_Rectangle_152" data-name="Rounded Rectangle 152" class="cls-7" x="362" y="42" width="31" height="31" rx="2" ry="2"/>
    <path class="cls-8" d="M1263,406v-6h2v6h-2Zm0-10h2v2h-2v-2Zm-8,10V396h2v8h4v2h-6Z" transform="translate(-883 -344)"/>
  </g>
  <g id="Open_ID" data-name="Open ID">
    <rect id="Rounded_Rectangle_146" data-name="Rounded Rectangle 146" class="cls-9" x="2" y="122" width="31" height="31" rx="2" ry="2"/>
    <path class="cls-3" d="M904,482l1.358-1.358A5.143,5.143,0,0,0,903,479.331v-2.042a7.828,7.828,0,0,1,3.754,1.957L908,478v4h-4Zm-4,4.966c-3.9-.175-7-2.319-7-4.966,0-2.419,2.577-4.436,6-4.9v2.027c-2.3.358-4,1.5-4,2.873,0,1.563,2.2,2.833,5,2.972V476l2-1v11l-2,1v-0.034Z" transform="translate(-883 -344)"/>
  </g>
  <g id="Dropbox">
    <rect id="Rounded_Rectangle_150" data-name="Rounded Rectangle 150" class="cls-10" x="322" y="122" width="31" height="31" rx="2" ry="2"/>
    <path class="cls-3" d="M1213,477.889l4.42-2.889,3.08,2.585-4.44,2.768Zm15,0L1223.58,475l-3.08,2.585,4.44,2.768Zm-7.5,4.684,4.44-2.22,3.06,1.917-4.4,2.889Zm0,0-4.44-2.22L1213,482.27l4.4,2.889Zm-4.4,2.81v0.95l4.4,2.666,4.42-2.646V485.4l-1.3.828-3.12-2.586-3.1,2.586Z" transform="translate(-883 -344)"/>
  </g>
  <g id="Bitrix24">
    <rect id="Rounded_Rectangle_149" data-name="Rounded Rectangle 149" class="cls-11" x="322" y="82" width="31" height="31" rx="2" ry="2"/>
    <g id="Group_4_copy" data-name="Group 4 copy">
      <path id="Rounded_Rectangle_212_copy" data-name="Rounded Rectangle 212 copy" class="cls-3" d="M1226.5,449h-11.84v0a4.791,4.791,0,0,1-4.66-4.871,4.861,4.861,0,0,1,3.01-4.536c-0.01-.145-0.04-0.284-0.04-0.432a5.071,5.071,0,0,1,4.98-5.157,4.927,4.927,0,0,1,4.08,2.209,4.026,4.026,0,0,1,1.31-.24,4.2,4.2,0,0,1,4.11,3.8A4.686,4.686,0,0,1,1226.5,449Zm-6-10a3.5,3.5,0,1,0,3.5,3.5A3.5,3.5,0,0,0,1220.5,439Zm1.08,4h-1.16a0.422,0.422,0,0,1-.42-0.422v-2.124a0.451,0.451,0,0,1,.45-0.454h0.03a0.459,0.459,0,0,1,.46.454v1.7h0.64A0.422,0.422,0,0,1,1221.58,443Z" transform="translate(-883 -344)"/>
    </g>
  </g>
  <g id="Ms">
    <rect id="Rounded_Rectangle_153" data-name="Rounded Rectangle 153" class="cls-12" x="362" y="82" width="31" height="31" rx="2" ry="2"/>
    <path class="cls-3" d="M1255,436.646l7-2.647,4,1.765v11.471L1262,449l-7-3,7,1V437l-5,1v7l-2,1v-9.353Z" transform="translate(-883 -344)"/>
  </g>
  <g id="Google">
    <rect id="Rounded_Rectangle_145" data-name="Rounded Rectangle 145" class="cls-13" x="42" y="42" width="31" height="31" rx="2" ry="2"/>
    <path id="Shape_446_copy" data-name="Shape 446 copy" class="cls-14" d="M940.5,394a7.476,7.476,0,0,1,6.09,3.15l-2.436,1.74a4.459,4.459,0,0,0-6.641-.733l-1.982-2.265A7.467,7.467,0,0,1,940.5,394Z" transform="translate(-883 -344)"/>
    <path id="Shape_444_copy" data-name="Shape 444 copy" class="cls-15" d="M944.5,404H940v-3h8v3a7.29,7.29,0,0,1-2.711,3.43l-3.181-1.735A4.676,4.676,0,0,0,944.5,404Z" transform="translate(-883 -344)"/>
    <path id="Shape_444_copy_2" data-name="Shape 444 copy 2" class="cls-16" d="M942.139,405.712l3.136,1.71A8.332,8.332,0,0,1,940.5,409a7.476,7.476,0,0,1-5.311-2.2l2.109-2.137A4.484,4.484,0,0,0,940.5,406,5.059,5.059,0,0,0,942.139,405.712Z" transform="translate(-883 -344)"/>
    <path id="Shape_444_copy_3" data-name="Shape 444 copy 3" class="cls-17" d="M937.513,398.157a4.469,4.469,0,0,0-.215,6.5L935.19,406.8a7.453,7.453,0,0,1,.355-10.886Zm-2.322,8.64" transform="translate(-883 -344)"/>
  </g>
  <g id="mailru">
    <rect id="Rounded_Rectangle_148" data-name="Rounded Rectangle 148" class="cls-18" x="322" y="42" width="31" height="31" rx="2" ry="2"/>
    <path id="mailru_copy_14" data-name="mailru copy 14" class="cls-19" d="M1223.09,401.442a2.757,2.757,0,0,0-2.81-2.772h-0.06a2.736,2.736,0,0,0-2.67,3.007,2.673,2.673,0,0,0,2.67,2.921,2.848,2.848,0,0,0,2.87-2.807v-0.349Zm-2.86-4.319a4.216,4.216,0,0,1,3.02,1.356v0a0.643,0.643,0,0,1,.62-0.7h0.09a0.7,0.7,0,0,1,.67.723v6.178a0.388,0.388,0,0,0,.65.354c0.95-1.019,2.09-5.24-.6-7.686a6.218,6.218,0,0,0-7.64-.624,6.155,6.155,0,0,0-1.94,7.214,5.757,5.757,0,0,0,7.16,3.093c1.11-.466,1.62,1.093.47,1.6a7.526,7.526,0,0,1-8.84-3.383,7.6,7.6,0,0,1,12.25-8.814c2.58,2.8,2.42,8.043-.09,10.081a1.741,1.741,0,0,1-2.81-1.325l-0.01-.441a4.164,4.164,0,0,1-3,1.3,4.47,4.47,0,0,1,0-8.931h0" transform="translate(-883 -344)"/>
  </g>
  <g id="b">
    <rect id="Rounded_Rectangle_151" data-name="Rounded Rectangle 151" class="cls-20" x="362" y="2" width="31" height="31" rx="2" ry="2"/>
    <path class="cls-3" d="M1261,368a5,5,0,0,1-5-5v-8a1,1,0,0,1,2,0v4.022A4.993,4.993,0,1,1,1261,368Zm0-8a3,3,0,1,0,3,3A3,3,0,0,0,1261,360Z" transform="translate(-883 -344)"/>
  </g>
  <g id="instagram">
    <rect id="Rounded_Rectangle_3_copy_8" data-name="Rounded Rectangle 3 copy 8" class="cls-21" x="122" y="122" width="31" height="31" rx="2" ry="2"/>
    <path id="Rounded_Rectangle_1_copy" data-name="Rounded Rectangle 1 copy" class="cls-3" d="M1017,474h7a4,4,0,0,1,4,4v7a4,4,0,0,1-4,4h-7a4,4,0,0,1-4-4v-7A4,4,0,0,1,1017,474Zm0,2h7a2,2,0,0,1,2,2v7a2,2,0,0,1-2,2h-7a2,2,0,0,1-2-2v-7A2,2,0,0,1,1017,476Zm3.5,2a3.5,3.5,0,1,1-3.5,3.5A3.5,3.5,0,0,1,1020.5,478Zm0,2a1.5,1.5,0,1,1-1.5,1.5A1.5,1.5,0,0,1,1020.5,480Z" transform="translate(-883 -344)"/>
  </g>
  <g id="youtube">
    <rect id="Rounded_Rectangle_3_copy" data-name="Rounded Rectangle 3 copy" class="cls-22" x="82" y="122" width="31" height="31" rx="2" ry="2"/>
    <path class="cls-3" d="M984,488h-7a4.177,4.177,0,0,1-4-4.334v-4.333A4.177,4.177,0,0,1,977,475h7a4.176,4.176,0,0,1,4,4.333v4.333A4.176,4.176,0,0,1,984,488Zm2-8.745a2.133,2.133,0,0,0-2-2.245h-7a2.133,2.133,0,0,0-2,2.245v4.489a2.133,2.133,0,0,0,2,2.245h7a2.133,2.133,0,0,0,2-2.245v-4.489Zm-7-.268,4,2.513-4,2.511v-5.024Z" transform="translate(-883 -344)"/>
  </g>
  <g id="Telegram">
    <rect id="Rounded_Rectangle_142" data-name="Rounded Rectangle 142" class="cls-23" x="283" y="122" width="31" height="31" rx="2" ry="2"/>
    <path id="Shape_933_copy" data-name="Shape 933 copy" class="cls-3" d="M1185.98,486.1a1,1,0,0,1-1.78.529c-1.09-.867-2.79-2.114-2.79-2.114s-1.23,2.166-1.45,2.388a0.682,0.682,0,0,1-1-.133,0.966,0.966,0,0,1-.03-0.1l0.68-3.452,4.92-4.833-6.71,3.829s-3.03-.906-3.48-1.083a0.7,0.7,0,0,1,.07-1.262c0.64-.326,11.93-4.638,12.31-4.749s1.38-.4,1.27.573S1186.09,485.566,1185.98,486.1Z" transform="translate(-883 -344)"/>
  </g>
  <g id="Skype">
    <rect id="Rounded_Rectangle_141" data-name="Rounded Rectangle 141" class="cls-24" x="283" y="82" width="31" height="31" rx="2" ry="2"/>
    <path id="Ellipse_36_copy_2" data-name="Ellipse 36 copy 2" class="cls-3" d="M1190,445a5,5,0,0,1-5,5,4.938,4.938,0,0,1-3.03-1.047c-0.16.01-.31,0.047-0.47,0.047a7.5,7.5,0,0,1-7.5-7.5c0-.161.04-0.312,0.05-0.471A4.937,4.937,0,0,1,1173,438a4.975,4.975,0,0,1,8.03-3.952c0.16-.01.31-0.048,0.47-0.048a7.5,7.5,0,0,1,7.5,7.5c0,0.161-.04.311-0.05,0.469A4.94,4.94,0,0,1,1190,445Zm-5.22-2.9a2.149,2.149,0,0,0-.67-0.757,4.3,4.3,0,0,0-1.03-.5q-0.615-.207-1.35-0.378c-0.39-.1-0.68-0.173-0.85-0.224a2.469,2.469,0,0,1-.5-0.21,1.106,1.106,0,0,1-.39-0.317,0.685,0.685,0,0,1-.13-0.428,0.833,0.833,0,0,1,.4-0.689,1.88,1.88,0,0,1,1.1-.293,1.7,1.7,0,0,1,1.06.267,2.107,2.107,0,0,1,.56.754,2.222,2.222,0,0,0,.35.5,0.7,0.7,0,0,0,.49.158,0.742,0.742,0,0,0,.58-0.26,0.873,0.873,0,0,0,.23-0.585,1.617,1.617,0,0,0-.18-0.716,2.244,2.244,0,0,0-.58-0.7,3.009,3.009,0,0,0-.98-0.53,4.481,4.481,0,0,0-1.41-.2,4.733,4.733,0,0,0-1.77.3,2.543,2.543,0,0,0-1.16.863,2.138,2.138,0,0,0-.4,1.286,2.106,2.106,0,0,0,.38,1.272,2.544,2.544,0,0,0,1.02.8,8.5,8.5,0,0,0,1.59.513c0.47,0.1.85,0.2,1.13,0.3a1.722,1.722,0,0,1,.68.4,0.912,0.912,0,0,1,.25.675,1.035,1.035,0,0,1-.48.879,2.071,2.071,0,0,1-1.27.357,1.977,1.977,0,0,1-.91-0.177,1.47,1.47,0,0,1-.54-0.448,3.255,3.255,0,0,1-.36-0.681,1.322,1.322,0,0,0-.34-0.537,0.7,0.7,0,0,0-.49-0.185,0.784,0.784,0,0,0-.59.236,0.77,0.77,0,0,0-.24.569,2.131,2.131,0,0,0,.38,1.146,2.792,2.792,0,0,0,.99.938,4.229,4.229,0,0,0,2.15.489,4.6,4.6,0,0,0,1.89-.357,2.749,2.749,0,0,0,1.21-.99,2.523,2.523,0,0,0,.42-1.428A2.4,2.4,0,0,0,1184.78,442.1Z" transform="translate(-883 -344)"/>
  </g>
  <g id="WhatsApp">
    <rect id="Rounded_Rectangle_140" data-name="Rounded Rectangle 140" class="cls-25" x="283" y="42" width="31" height="31" rx="2" ry="2"/>
    <path id="Shape_51_copy_11" data-name="Shape 51 copy 11" class="cls-3" d="M1181.5,409a7.453,7.453,0,0,1-3.99-1.17L1174,409l1.17-3.511A7.486,7.486,0,1,1,1181.5,409Zm1.63-6.364a14.16,14.16,0,0,0,1.52.405,0.406,0.406,0,0,1,.34.476V403.8a0.661,0.661,0,0,1-.24.542,2.764,2.764,0,0,1-.86.592,3.476,3.476,0,0,1-2.66-.8,8.749,8.749,0,0,1-1.31-1.075,9.306,9.306,0,0,1-1.08-1.311,3.48,3.48,0,0,1-.79-2.655,2.782,2.782,0,0,1,.59-0.856,0.62,0.62,0,0,1,.54-0.236l0.29,0a0.417,0.417,0,0,1,.47.355c0.15,0.592.26,1.02,0.41,1.5,0.06,0.2-.01.249-0.17,0.368-0.1.077-.18,0.133-0.26,0.193a0.36,0.36,0,0,0-.17.508,5.6,5.6,0,0,0,.97,1.338,5.459,5.459,0,0,0,1.34.967,0.365,0.365,0,0,0,.51-0.169c0.06-.081.11-0.156,0.19-0.261a0.284,0.284,0,0,1,.37-0.171h0Z" transform="translate(-883 -344)"/>
  </g>
  <g id="Viber">
    <rect id="Rounded_Rectangle_139" data-name="Rounded Rectangle 139" class="cls-26" x="282" y="2" width="31" height="31" rx="2" ry="2"/>
    <path class="cls-3" d="M1177.41,355.923c0.37,0.6,1.2,2.047,1.32,2.311a0.8,0.8,0,0,1-.24,1.066,5.551,5.551,0,0,0-.91.689c-0.14.267-.27,1.3,1.27,2.833s2.78,1.843,3.1,1.5,0.51-.722.71-0.922a0.863,0.863,0,0,1,1.16-.1,22.722,22.722,0,0,1,2.45,1.5c0.49,0.378.86,0.653,0.68,1.145a3.464,3.464,0,0,1-.8,1.31,2.512,2.512,0,0,1-2.28.678,10.326,10.326,0,0,1-3.25-1.433,20.226,20.226,0,0,1-2.92-2.544,20.574,20.574,0,0,1-2.23-2.588,11.9,11.9,0,0,1-1.41-3.554,2.086,2.086,0,0,1,.43-1.922,3.042,3.042,0,0,1,1.47-.844C1176.35,354.946,1176.79,354.946,1177.41,355.923Zm3.09,0.159V355a6.5,6.5,0,0,1,6.5,6.5h-1.08A5.421,5.421,0,0,0,1180.5,356.082Zm4.33,5.417h-1.08a3.252,3.252,0,0,0-3.25-3.249v-1.084A4.332,4.332,0,0,1,1184.83,361.5Z" transform="translate(-883 -344)"/>
  </g>
  <g id="Tumblr">
    <rect id="Rounded_Rectangle_138" data-name="Rounded Rectangle 138" class="cls-27" x="243" y="122" width="31" height="31" rx="2" ry="2"/>
    <path id="t_copy_2" data-name="t copy 2" class="cls-3" d="M1143.6,485.984a4.273,4.273,0,0,0,2.4-.778v2.9a7.538,7.538,0,0,1-3.61.893,6.189,6.189,0,0,1-2.79-.652c-1.01-.576-1.63-1.346-1.61-3.277v-4.061H1136v-2.72a4.625,4.625,0,0,0,3.43-4.289H1142v3.972h3v3.037h-3v3.234C1142,485.513,1142.5,485.984,1143.6,485.984Z" transform="translate(-883 -344)"/>
  </g>
  <g id="Tencent_Weibo" data-name="Tencent Weibo">
    <rect id="Rounded_Rectangle_137" data-name="Rounded Rectangle 137" class="cls-28" x="243" y="82" width="31" height="31" rx="2" ry="2"/>
    <path id="Ellipse_255_copy_2" data-name="Ellipse 255 copy 2" class="cls-3" d="M1151.98,445.732a0.277,0.277,0,0,1-.36.156c-0.01,0-.01,0-0.02-0.007h0l-0.46-.188h0a7.311,7.311,0,0,1-3.96-3.865,1.186,1.186,0,1,1,.55-0.135,6.769,6.769,0,0,0,3.65,3.49l0.46,0.188h0A0.29,0.29,0,0,1,1151.98,445.732Zm-2.36-3.128h0a0.294,0.294,0,0,1-.51-0.286,0.268,0.268,0,0,1,.05-0.087,2.409,2.409,0,0,0,.37-0.634,2.55,2.55,0,0,0-1.39-3.31,2.521,2.521,0,0,0-3.29,1.408,2.555,2.555,0,0,0,1.4,3.31,2.5,2.5,0,0,0,.96.184,0.318,0.318,0,0,1,.13.02,0.3,0.3,0,0,1-.12.57v0a3.069,3.069,0,0,1-1.19-.228,3.146,3.146,0,0,1-1.72-4.079,3.1,3.1,0,0,1,4.04-1.735,3.142,3.142,0,0,1,1.73,4.079A3.424,3.424,0,0,1,1149.62,442.6Zm-11.94,1.519a5.489,5.489,0,0,1-1.59-.234v0a0.525,0.525,0,0,1,.13-1.032,0.543,0.543,0,0,1,.18.032,4.416,4.416,0,0,0,1.28.188,4.513,4.513,0,1,0-4.48-4.513,4.619,4.619,0,0,0,.33,1.71,0.461,0.461,0,0,1,.06.232,0.529,0.529,0,0,1-.53.524,0.511,0.511,0,0,1-.48-0.341h-0.01a5.747,5.747,0,0,1-.41-2.125A5.52,5.52,0,1,1,1137.68,444.123Zm-2.09-5.562a2.09,2.09,0,1,1,.73,1.6,12.416,12.416,0,0,0-3.33,8.479v0.891h0a0.5,0.5,0,0,1-.5.472,0.494,0.494,0,0,1-.49-0.5v-0.026h0v-0.892h0a13.382,13.382,0,0,1,3.74-9.252A2.18,2.18,0,0,1,1135.59,438.561Z" transform="translate(-883 -344)"/>
  </g>
  <g id="Surfingbird">
    <rect id="Rounded_Rectangle_136" data-name="Rounded Rectangle 136" class="cls-29" x="243" y="42" width="31" height="31" rx="2" ry="2"/>
    <path class="cls-3" d="M1132,397.733l6.92,0.978L1135.41,394l8.85,4.889,2.62-2.933h1.32l2.8,1.333-3.15.978-0.35,2.4-4.03,4h-2.28l-0.78,2.222V410l-2.89-.977,3.32-6.134Z" transform="translate(-883 -344)"/>
  </g>
  <g id="Sina_Weibo" data-name="Sina Weibo">
    <rect id="Rounded_Rectangle_135" data-name="Rounded Rectangle 135" class="cls-30" x="242" y="2" width="31" height="31" rx="2" ry="2"/>
    <path id="Ellipse_253_copy_7" data-name="Ellipse 253 copy 7" class="cls-3" d="M1149.73,360.038h-0.01a0.724,0.724,0,0,1-.68.433,0.7,0.7,0,0,1-.73-0.665,0.556,0.556,0,0,1,.03-0.182h0v-0.007c0-.007.01-0.015,0.01-0.022a2.966,2.966,0,0,0,.19-1.032,3.414,3.414,0,0,0-3.56-3.236,3.967,3.967,0,0,0-.64.052v-0.013a0.817,0.817,0,0,1-.28.05,0.7,0.7,0,0,1-.73-0.664,0.681,0.681,0,0,1,.59-0.652h0a5.445,5.445,0,0,1,1.06-.1,4.81,4.81,0,0,1,5.02,4.565A4.274,4.274,0,0,1,1149.73,360.038Zm-4.73-2.532a1.287,1.287,0,0,0-.23.02v0a0.649,0.649,0,0,1-.17.021,0.578,0.578,0,1,1-.08-1.153,2.7,2.7,0,0,1,.48-0.043,2.351,2.351,0,0,1,2.45,2.232,2.163,2.163,0,0,1-.13.722h0a0.646,0.646,0,0,1-.6.385,0.614,0.614,0,0,1-.64-0.579,0.456,0.456,0,0,1,.04-0.2h0a0.9,0.9,0,0,0,.06-0.328A1.131,1.131,0,0,0,1145,357.506Zm-0.21.885a1.358,1.358,0,0,1,.3,1.568c-0.17.5-.23,0.554-0.15,0.647a2.751,2.751,0,0,0,.71.273,3.247,3.247,0,0,1,1.54,1.056,2.083,2.083,0,0,1,.22,2.01,4.784,4.784,0,0,1-1.42,1.874,10.272,10.272,0,0,1-2.21,1.294,14.2,14.2,0,0,1-2.96.783,19.466,19.466,0,0,1-1.98.1,13.988,13.988,0,0,1-2.44-.239,13.187,13.187,0,0,1-2.77-.885,6.14,6.14,0,0,1-2.25-1.942,3,3,0,0,1-.26-2.419,6.145,6.145,0,0,1,1.35-2.521,8.051,8.051,0,0,1,.63-0.716,12.837,12.837,0,0,1,2.33-1.975,9.709,9.709,0,0,1,2.47-1.159,2.506,2.506,0,0,1,2.17.2,1.606,1.606,0,0,1,.34,1.534,1.074,1.074,0,0,0-.15.715,0.621,0.621,0,0,0,.6-0.068,7.433,7.433,0,0,1,1.46-.409A3.257,3.257,0,0,1,1144.79,358.391Zm-6.58,1.781c-3.14.3-5.53,2.059-5.32,3.936s2.93,3.157,6.08,2.86,5.53-2.059,5.32-3.936S1141.36,359.875,1138.21,360.172Zm0.61,6.065c-1.64.363-3.24-.376-3.59-1.651s0.71-2.6,2.34-2.968,3.25,0.375,3.6,1.651S1140.46,365.873,1138.82,366.237Zm-0.54-2.155a1.093,1.093,0,1,0-.76,1.129A0.974,0.974,0,0,0,1138.28,364.082Zm0.92-.716a0.373,0.373,0,0,0-.47-0.224,0.381,0.381,0,0,0-.3.428,0.371,0.371,0,0,0,.47.223A0.364,0.364,0,0,0,1139.2,363.366Z" transform="translate(-883 -344)"/>
  </g>
  <g id="Renren">
    <rect id="Rounded_Rectangle_134" data-name="Rounded Rectangle 134" class="cls-31" x="203" y="122" width="31" height="31" rx="2" ry="2"/>
    <path id="Rounded_Rectangle_117_copy_2" data-name="Rounded Rectangle 117 copy 2" class="cls-3" d="M1110.67,484.768a5.531,5.531,0,0,1-3.67-5.209V475.09A6,6,0,0,1,1110.67,484.768ZM1106,487a5.919,5.919,0,0,1-3.06-.845,7.557,7.557,0,0,0,3.03-2.868,7.551,7.551,0,0,0,2.96,2.945A5.957,5.957,0,0,1,1106,487Zm-4.1-2.583a5.922,5.922,0,0,0-.4-7.377,5.972,5.972,0,0,1,3.5-1.948V479.5A5.463,5.463,0,0,1,1101.9,484.417Zm-0.8,0a5.463,5.463,0,0,1-3.1-4.918v-4.407a5.972,5.972,0,0,1,3.5,1.948A5.922,5.922,0,0,0,1101.1,484.417ZM1097,487a5.957,5.957,0,0,1-2.93-.768,7.551,7.551,0,0,0,2.96-2.945,7.557,7.557,0,0,0,3.03,2.868A5.919,5.919,0,0,1,1097,487Zm-4.67-2.232a6,6,0,0,1,3.67-9.678v4.469A5.531,5.531,0,0,1,1092.33,484.768Z" transform="translate(-883 -344)"/>
  </g>
  <g id="Qzone">
    <rect id="Rounded_Rectangle_133" data-name="Rounded Rectangle 133" class="cls-32" x="203" y="82" width="31" height="31" rx="2" ry="2"/>
    <path id="Shape_451_copy" data-name="Shape 451 copy" class="cls-3" d="M1110.9,439.8h0l-4.47,3.889,0.16,0.824c-0.1,0-.19,0-0.28,0-3.18.006-5.94-.289-5.94-0.289l6.09-4.081c-3.14-.716-7.8-0.3-9.96-0.035-0.73.088-1.17,0.157-1.17,0.157l0.12,0.078s1.43,0,1.83.017c3.89,0.209,5.81.432,5.81,0.432l-6.03,4.148c4.09,0.81,9.2,0,11.17-.381a0.169,0.169,0,0,1-.04.015c-0.36.139-1.21,0.48-1.36,0.52a0.322,0.322,0,0,0-.12.083l0.83,4.405a0.2,0.2,0,0,1,.01.078,0.346,0.346,0,0,1-.36.333,0.441,0.441,0,0,1-.18-0.044h0l-5.51-3-5.48,2.977a0.366,0.366,0,0,1-.21.066,0.346,0.346,0,0,1-.36-0.333v-0.045l1.2-5.931-4.53-3.874c-0.01,0-.01-0.01-0.02-0.015v0h0a0.319,0.319,0,0,1-.1-0.227,0.341,0.341,0,0,1,.32-0.33l0.01,0,6-.593,2.84-5.433a0.021,0.021,0,0,1,.01-0.021v-0.01h0a0.377,0.377,0,0,1,.64,0h0l2.85,5.464,6.01,0.593v0a0.344,0.344,0,0,1,.32.33A0.328,0.328,0,0,1,1110.9,439.8Z" transform="translate(-883 -344)"/>
  </g>
  <g id="Pocket">
    <rect id="Rounded_Rectangle_132" data-name="Rounded Rectangle 132" class="cls-33" x="203" y="42" width="31" height="31" rx="2" ry="2"/>
    <path id="Rounded_Rectangle_116" data-name="Rounded Rectangle 116" class="cls-3" d="M1101.5,410a8.5,8.5,0,0,1-8.5-8.5V395a1,1,0,0,1,1-1h15a1,1,0,0,1,1,1v6.5A8.5,8.5,0,0,1,1101.5,410Zm5.18-10.751a0.994,0.994,0,0,0-1.41,0l-3.77,3.427-3.8-3.383a1,1,0,1,0-1.41,1.415l4.51,4.019a1.008,1.008,0,0,0,1.42,0l4.46-4.064A1,1,0,0,0,1106.68,399.248Z" transform="translate(-883 -344)"/>
  </g>
  <g id="LiveID">
    <rect id="Rounded_Rectangle_144" data-name="Rounded Rectangle 144" class="cls-34" x="2" y="82" width="31" height="31" rx="2" ry="2"/>
    <path class="cls-3" d="M906.954,436.639l-2.211,8.412a2.119,2.119,0,0,1-1.859,1.5l2.278-8.5a0.751,0.751,0,0,0-.447-0.881l-4.847-1.435a0.431,0.431,0,0,0-.552.214l4.4,1.708a0.714,0.714,0,0,1,.424.835l-2.69,10.165a0.431,0.431,0,0,1-.584.289l-6.555-2.674a0.506,0.506,0,0,1-.3-0.421,0.471,0.471,0,0,1-.062-0.368L894.317,444H898l-0.014,2.224,4.234-4.234-4.234-4.172L898,440h-2.7l0.907-3.694,0.064-.268a3.269,3.269,0,0,1,.242-0.854,0.121,0.121,0,0,1,.01-0.014,0.455,0.455,0,0,1,.414-0.193h8.518A1.31,1.31,0,0,1,906.954,436.639Z" transform="translate(-883 -344)"/>
  </g>
  <g id="Livejournal">
    <rect id="Rounded_Rectangle_131" data-name="Rounded Rectangle 131" class="cls-35" x="122" y="42" width="31" height="31" rx="2" ry="2"/>
    <path id="Ellipse_76_copy_4" data-name="Ellipse 76 copy 4" class="cls-3" d="M1026.39,408.018l-5.01-1-0.86-.86h0l-0.17-.163h0l-3.35-3.357h0l-1.18-1.18h0l-2.69-2.685c-0.46-.456.22-1.872,1.51-3.163s2.71-1.966,3.16-1.509l2.69,2.684h0l0.2,0.2,5.36,5.362,1.01,5Zm-2.32-4.343a6.716,6.716,0,0,0-.71.651,5.568,5.568,0,0,0-.64.7l1.63,0.269Zm-6.74-7.4c-0.37-.371-0.79.109-1.35,0.666s-1.04.977-.67,1.348l1.1,1.092a8.37,8.37,0,0,1,.92-1.086,8.213,8.213,0,0,1,1.09-.926Zm3.01,3.016h0l-0.14-.142-0.19-.189c-0.37-.37-0.79.11-1.34,0.666s-1.04.978-.67,1.348l0.16,0.158,2.95,2.948a8.776,8.776,0,0,1,2.01-2.012Z" transform="translate(-883 -344)"/>
  </g>
  <g id="LinkedIn">
    <rect id="Rounded_Rectangle_130" data-name="Rounded Rectangle 130" class="cls-36" x="82" y="82" width="31" height="31" rx="2" ry="2"/>
    <path class="cls-3" d="M977,439h-3v9h3v-9Zm4,0h-3v9h3v-5a1.785,1.785,0,0,1,1.524-1.006,1.433,1.433,0,0,1,1.454,1.646L984,448h3v-5c0-2.128-.622-4-3.263-4a3.38,3.38,0,0,0-2.75,1.388Zm-5.5-4a1.5,1.5,0,1,1-1.5,1.5A1.5,1.5,0,0,1,975.5,435Z" transform="translate(-883 -344)"/>
  </g>
  <g id="Evernote">
    <rect id="Rounded_Rectangle_129" data-name="Rounded Rectangle 129" class="cls-37" x="202" y="2" width="31" height="31" rx="2" ry="2"/>
    <path id="Shape_450_copy" data-name="Shape 450 copy" class="cls-3" d="M1101.29,354.358a29.169,29.169,0,0,1,3.32.168c1.35,0.183,1.88.5,2.05,1.736a52.766,52.766,0,0,1,.33,6.217c-0.06,1.7-.62,5.36-1.16,6.217a2.206,2.206,0,0,1-1.94,1.289,14.26,14.26,0,0,1-2.59-.113,1.531,1.531,0,0,1-1.29-1.571c-0.05-1.116-.06-1.489.5-1.961a2.238,2.238,0,0,1,1.31-.342c0.41-.023,1.21-0.023,1.21-0.023a0.961,0.961,0,0,0-.09.986s-0.92.046-1.1,0.069a0.59,0.59,0,0,0-.49.685c0.04,0.478.27,0.563,0.76,0.563s1.26-.022,1.51-0.045a0.833,0.833,0,0,0,.67-0.82,6.378,6.378,0,0,0-.2-1.958,1.341,1.341,0,0,0-1.42-.888,3.7,3.7,0,0,1-2.08-.564,3.441,3.441,0,0,1-.5-1.8s-0.14,1.241-.29,1.889-0.3,1.166-1.22,1.037a27.674,27.674,0,0,1-3.5-.679,1.713,1.713,0,0,1-1.14-1.238,20.249,20.249,0,0,1-.75-3.121,6.712,6.712,0,0,1-.18-1.931,1.2,1.2,0,0,1,1.27-1.172c0.91-.036,1.33-0.018,1.63-0.018a0.865,0.865,0,0,0,1.12-.826c-0.01-.907-0.03-1.027-0.04-1.351a1.594,1.594,0,0,1,1.61-1.783c1.55-.009,1.99.13,2.32,0.556A1.592,1.592,0,0,1,1101.29,354.358Zm-8.09,1.885,3.03-2.806a1.309,1.309,0,0,0-.21.574c-0.03.322-.01,1.547-0.02,1.678s0,0.292-.22.3-1.67-.01-1.87,0A1.477,1.477,0,0,0,1093.2,356.243Zm9.82,4.812a1.072,1.072,0,0,1,1-1.148,1.141,1.141,0,0,1,1.04,1.289A4.384,4.384,0,0,0,1103.02,361.055Z" transform="translate(-883 -344)"/>
  </g>
  <g id="Reddit">
    <rect id="Rounded_Rectangle_128" data-name="Rounded Rectangle 128" class="cls-38" x="162" y="122" width="31" height="31" rx="2" ry="2"/>
    <path id="Rounded_Rectangle_114_copy_4" data-name="Rounded Rectangle 114 copy 4" class="cls-3" d="M1062.37,477.178a9.814,9.814,0,0,1,3.61,1.353,2.451,2.451,0,0,1,1.52-.531,2.5,2.5,0,0,1,1.4,4.569,4.807,4.807,0,0,1,.1.931c0,3.59-3.81,6.5-8.5,6.5s-8.5-2.91-8.5-6.5a4.807,4.807,0,0,1,.1-0.931,2.5,2.5,0,0,1,1.4-4.569,2.451,2.451,0,0,1,1.52.531,10.17,10.17,0,0,1,5.37-1.524l0.64-3.136v-0.016c0-.01.01-0.018,0.01-0.028l0.02-.083a0.362,0.362,0,0,1,.04-0.1,0.876,0.876,0,0,1,.11-0.218,0.731,0.731,0,0,1,.11-0.126,0.958,0.958,0,0,1,.15-0.134,0.717,0.717,0,0,1,.18-0.086,0.758,0.758,0,0,1,.16-0.06,1.058,1.058,0,0,1,.21-0.012,0.866,0.866,0,0,1,.14-0.008l3.35,0.67a2,2,0,1,1-.4,1.956l-2.33-.465ZM1065,482.5a1.5,1.5,0,1,0-1.5,1.5A1.5,1.5,0,0,0,1065,482.5Zm-7.5-1.5a1.5,1.5,0,1,0,1.5,1.5A1.5,1.5,0,0,0,1057.5,481Zm-0.29,5.191-0.55.812a7.893,7.893,0,0,0,7.68,0l-0.55-.812A7.094,7.094,0,0,1,1057.21,486.191Z" transform="translate(-883 -344)"/>
  </g>
  <g id="Digg">
    <rect id="Rounded_Rectangle_127" data-name="Rounded Rectangle 127" x="162" y="82" width="31" height="31" rx="2" ry="2"/>
    <path class="cls-3" d="M1069,449h-4v-2h3v-1h-3v-8h5v11h-1Zm-2-9v4h1v-4h-1Zm-5,9h-3v-2h3v-1h-3v-8h5v11h-2Zm0-9h-1v4h1v-4Zm-6-2h2v8h-2v-8Zm0-3h2v2h-2v-2Zm-3,11h-3v-8h3v-3h2v11h-2Zm0-6h-1v4h1v-4Z" transform="translate(-883 -344)"/>
  </g>
  <g id="Delicious">
    <rect id="Rounded_Rectangle_126" data-name="Rounded Rectangle 126" class="cls-39" x="162" y="42" width="31" height="31" rx="2" ry="2"/>
    <path id="Rectangle_576_copy" data-name="Rectangle 576 copy" class="cls-3" d="M1061,394h8v8h-8v-8Zm-8,8h8v8h-8v-8Z" transform="translate(-883 -344)"/>
  </g>
  <g id="Blogger">
    <rect id="Rounded_Rectangle_125" data-name="Rounded Rectangle 125" class="cls-38" x="42" y="82" width="31" height="31" rx="2" ry="2"/>
    <path class="cls-3" d="M946.966,440.863l-0.112-.245-0.186-.155c-0.244-.2-1.237.014-1.57-0.305a2.105,2.105,0,0,1-.342-1.205,3.641,3.641,0,0,0-.377-1.51,4.634,4.634,0,0,0-3.242-2.427H938.2a4.342,4.342,0,0,0-4.2,4.45v4.078a4.337,4.337,0,0,0,4.2,4.441h4.823c2.31,0,3.942-2,3.955-4.441l0.026-2.483Zm-9.137-2.852h3.316a1,1,0,0,1,0,1.976h-3.316A1,1,0,0,1,937.829,438.011ZM943.182,445h-5.361a1.027,1.027,0,0,1,0-2.006h5.361A1.028,1.028,0,0,1,943.182,445Z" transform="translate(-883 -344)"/>
  </g>
  <g id="Twitter">
    <rect id="Rounded_Rectangle_124" data-name="Rounded Rectangle 124" class="cls-40" x="2" y="42" width="31" height="31" rx="2" ry="2"/>
    <path id="Твиттер_copy_21" data-name="Твиттер copy 21" class="cls-3" d="M900.256,399.4s0.237-3.348,2.571-3.377c1.9-.025,2.264.838,2.264,0.838a4.285,4.285,0,0,0,1.557-.862,2.551,2.551,0,0,1-.637,1.508,1.574,1.574,0,0,0,.99-0.359,1.941,1.941,0,0,1-1.038,1.244,9.716,9.716,0,0,1-1.6,5.917c-1.7,2.469-4.792,2.653-6.488,2.674a9.046,9.046,0,0,1-3.867-1.127s2.573,0.032,3.725-.81a18.237,18.237,0,0,1-2.55-2.107,2.542,2.542,0,0,0,.923-0.093,13.754,13.754,0,0,1-2.1-2.9,3.357,3.357,0,0,0,.968.05s-1.5-2.435-.79-4.015C894.184,395.985,896.719,399.187,900.256,399.4Z" transform="translate(-883 -344)"/>
  </g>
  <g id="Pinterest">
    <rect id="Rounded_Rectangle_123" data-name="Rounded Rectangle 123" class="cls-41" x="162" y="2" width="31" height="31" rx="2" ry="2"/>
    <path id="Shape_449_copy" data-name="Shape 449 copy" class="cls-3" d="M1057.07,365.04c0.24-1.242.75-3.417,0.86-3.627a1.12,1.12,0,0,0,.06-0.907,4.207,4.207,0,0,1,0-2.479,1.675,1.675,0,0,1,2.27-1.088c1.09,0.461.49,2.173,0.36,2.7a10.307,10.307,0,0,0-.57,2.536,1.461,1.461,0,0,0,1.47,1.432,2.745,2.745,0,0,0,2.33-1.7,7.683,7.683,0,0,0,.76-3.326,3.963,3.963,0,0,0-.76-2.568,4.393,4.393,0,0,0-3.27-1.369,4.622,4.622,0,0,0-3.15,1.17,4.692,4.692,0,0,0-1.56,3.2,3.406,3.406,0,0,0,.36,1.811,1.793,1.793,0,0,1,.44.872c-0.04.214-.22,0.84-0.25,0.955s-0.29.346-.7,0.082a3.4,3.4,0,0,1-1.46-1.875,5.991,5.991,0,0,1,.03-3.627,7,7,0,0,1,2.29-2.957,7.234,7.234,0,0,1,4.39-1.288,6,6,0,0,1,4.48,1.856,5.608,5.608,0,0,1,1.54,4.187,6.975,6.975,0,0,1-1.79,4.742,4.38,4.38,0,0,1-3.45,1.482,3.208,3.208,0,0,1-2.3-1.087s-0.56,1.976-.74,2.585a11.445,11.445,0,0,1-1.08,2.387,2.521,2.521,0,0,1-.83.857,13.954,13.954,0,0,1-.05-3.26A10.41,10.41,0,0,1,1057.07,365.04Z" transform="translate(-883 -344)"/>
  </g>
  <g id="Yandex">
    <rect id="Rounded_Rectangle_143" data-name="Rounded Rectangle 143" class="cls-42" x="82" y="42" width="31" height="31" rx="2" ry="2"/>
    <path class="cls-43" d="M983.781,394.976H981.5a4.257,4.257,0,0,0-4.48,4.343,3.686,3.686,0,0,0,2.567,3.612l-2.554,4.091a1.252,1.252,0,0,0,.02.98h1.377a0.234,0.234,0,0,0,.241-0.121l2.788-4.627h0.531v4.627a0.141,0.141,0,0,0,.14.121h1.716a0.13,0.13,0,0,0,.161-0.139V395.15A0.178,0.178,0,0,0,983.781,394.976Zm-1.8,6.966h-0.37a2.469,2.469,0,0,1-2.608-2.8c0-2.171,1.2-2.936,2.427-2.936h0.551v5.733Z" transform="translate(-883 -344)"/>
  </g>
  <g id="Google_" data-name="Google+">
    <rect id="Rounded_Rectangle_122" data-name="Rounded Rectangle 122" class="cls-44" x="42" y="122" width="31" height="31" rx="2" ry="2"/>
    <path class="cls-3" d="M950,483h-2v2h-2v-2h-2v-2h2v-2h2v2h2v2Zm-12.5,4a5.5,5.5,0,1,1,4.431-8.734l-1.7,1.066A3.494,3.494,0,1,0,937.5,485a3.727,3.727,0,0,0,3.307-2H938v-2h5v2A5.769,5.769,0,0,1,937.5,487Z" transform="translate(-883 -344)"/>
  </g>
  <g id="Moi_mir" data-name="Moi mir">
    <rect id="Rounded_Rectangle_121" data-name="Rounded Rectangle 121" class="cls-18" x="122" y="2" width="31" height="31" rx="2" ry="2"/>
    <path id="Rounded_Rectangle_115_copy" data-name="Rounded Rectangle 115 copy" class="cls-3" d="M1017.5,356a1.5,1.5,0,1,1-1.5,1.5A1.5,1.5,0,0,1,1017.5,356Zm6,0a1.5,1.5,0,1,1-1.5,1.5A1.5,1.5,0,0,1,1023.5,356Zm4,10.875a1.012,1.012,0,0,1-1.37-.361l-0.83-1.272a7.425,7.425,0,0,1-9.59,0l-0.84,1.293a1,1,0,0,1-1.74-1l2-3.081a1,1,0,0,1,1.74,1l-0.06.092a5.423,5.423,0,0,0,7.38,0l-0.06-.083a0.986,0.986,0,0,1,.37-1.349,1.012,1.012,0,0,1,1.37.361l2,3.043A0.986,0.986,0,0,1,1027.5,366.874Z" transform="translate(-883 -344)"/>
  </g>
  <g id="Одноклассники">
    <rect id="Rounded_Rectangle_120" data-name="Rounded Rectangle 120" class="cls-45" x="42" y="2" width="31" height="31" rx="2" ry="2"/>
    <path id="Одноклассники_copy_26" data-name="Одноклассники copy 26" class="cls-3" d="M940.5,355a3.5,3.5,0,1,1-3.518,3.5A3.506,3.506,0,0,1,940.5,355Zm0.008,1.957a1.52,1.52,0,1,1-1.535,1.518A1.527,1.527,0,0,1,940.505,356.955Zm-0.008,6.059a5.817,5.817,0,0,0,1.965-.357,5.882,5.882,0,0,1,1.116-.564c0.22,0.008.583,0.373,0.521,1.317-0.035.539-1.018,0.761-1.364,0.967a2.266,2.266,0,0,1-.725.247s0.847,0.906,1.063,1.129a2.667,2.667,0,0,1,.948,1.278,1.342,1.342,0,0,1-1,1,4.5,4.5,0,0,1-1.4-1.12c-0.582-.556-1.115-1.069-1.115-1.069s-0.546.486-1.115,1.048a4.622,4.622,0,0,1-1.368,1.141,1.441,1.441,0,0,1-1.062-1.16,6.331,6.331,0,0,1,1.241-1.487,8.055,8.055,0,0,1,.8-0.757,1.9,1.9,0,0,1-.638-0.208c-0.481-.267-1.511-0.547-1.484-1.043,0.029-.512.159-1.3,0.616-1.3a6.085,6.085,0,0,1,1.119.542A4.365,4.365,0,0,0,940.5,363.014Z" transform="translate(-883 -344)"/>
  </g>
  <g id="Facebook">
    <rect id="Rounded_Rectangle_119" data-name="Rounded Rectangle 119" class="cls-46" x="82" y="2" width="31" height="31" rx="2" ry="2"/>
    <path id="facebook_copy_21" data-name="facebook copy 21" class="cls-3" d="M982.988,356.98L983.3,355a15.92,15.92,0,0,0-2.4.018,2.251,2.251,0,0,0-1.427.784,2.462,2.462,0,0,0-.477,1.6v2.592l-2-.015v2.007l2,0.007v6l2.013-.005v-6l2.374,0,0.31-2.007h-2.683s0-2.285,0-2.509a0.562,0.562,0,0,1,.671-0.487C982.122,356.979,982.988,356.98,982.988,356.98Z" transform="translate(-883 -344)"/>
  </g>
  <g id="Vkontakte">
    <rect id="Rounded_Rectangle_118" data-name="Rounded Rectangle 118" class="cls-47" x="2" y="2" width="31" height="31" rx="2" ry="2"/>
	<path d="M16.7379 20C11.81 20 8.71087 16.6216 8.59375 11H11.0622C11.1433 15.1261 13.2514 16.8739 14.6929 17.2342V11H17.0172V14.5586C18.4406 14.4054 19.9361 12.7838 20.4406 11H22.765C22.3776 13.1982 20.756 14.8198 19.6028 15.4865C20.756 16.027 22.6028 17.4414 23.3055 20H20.7469C20.1974 18.2883 18.828 16.964 17.0172 16.7838V20H16.7379Z" fill="white" transform="translate(2 2)"/>
  </g>
  <g id="Kollections">
    <rect id="Rounded_Rectangle_117" data-name="Rounded Rectangle 117" class="cls-48" x="322" y="2" width="31" height="31" rx="2" ry="2"/>
    <path class="cls-3" d="M1216,356v12l4.5-3,4.5,3V356h-9Z" transform="translate(-883 -344)"/>
  </g>
</svg>
