<svg xmlns="http://www.w3.org/2000/svg" width="600" height="600" viewBox="0 0 600 600">
  <defs>
    <style>
      .cls-1, .cls-6 {
        fill: #222;
      }

      .cls-1, .cls-10, .cls-12, .cls-13, .cls-14, .cls-17, .cls-18, .cls-19, .cls-20, .cls-21, .cls-22, .cls-23, .cls-24, .cls-25, .cls-26, .cls-27, .cls-29, .cls-3, .cls-32, .cls-4, .cls-5, .cls-7, .cls-8 {
        fill-rule: evenodd;
      }

      .cls-15, .cls-16, .cls-2, .cls-4 {
        fill: #fff;
      }

      .cls-3 {
        fill: #333;
      }

      .cls-12, .cls-14, .cls-19, .cls-30, .cls-31, .cls-32, .cls-5, .cls-7 {
        fill: none;
        stroke-linecap: round;
        stroke-linejoin: round;
        stroke-width: 2px;
      }

      .cls-14, .cls-5 {
        stroke: #fff;
      }

      .cls-7 {
        stroke: #000;
      }

      .cls-17, .cls-9 {
        fill: #999;
      }

      .cls-10 {
        fill: #d21515;
      }

      .cls-11 {
        fill: #5bb147;
      }

      .cls-12 {
        stroke: #222;
      }

      .cls-13 {
        fill: #fbfbfb;
      }

      .cls-13, .cls-14, .cls-15 {
        opacity: 0.7;
      }

      .cls-16 {
        opacity: 0.77;
      }

      .cls-18 {
        fill: #969ba5;
      }

      .cls-19, .cls-31 {
        stroke: #969ba5;
      }

      .cls-20 {
        fill: #252525;
      }

      .cls-21 {
        fill: #95abba;
      }

      .cls-22 {
        fill: #151a25;
      }

      .cls-23 {
        fill: #1fad57;
      }

      .cls-24 {
        fill: #ff8707;
      }

      .cls-25 {
        fill: #00a4f1;
      }

      .cls-26 {
        fill: #d9002a;
      }

      .cls-27 {
        fill: #fefdfd;
      }

      .cls-28 {
        fill: #f5f5f5;
      }

      .cls-29 {
        fill: #db0f0f;
      }

      .cls-30, .cls-32 {
        stroke: #77d03c;
      }
    </style>
  </defs>
  <path class="cls-1" d="M367,280v11h-1.684l-11-11H314a1,1,0,0,1,0-2h41.338L365,287.662V278h2a8,8,0,0,0,8-8V236a8,8,0,0,0-7-7.931V228a1,1,0,0,1,0-2,0.975,0.975,0,0,1,.445.116A9.994,9.994,0,0,1,377,236v34A10,10,0,0,1,367,280Zm-14-15H311.687l-11,11H299V265a10,10,0,0,1-10-10V221a10,10,0,0,1,10-10h54a10,10,0,0,1,10,10v34A10,10,0,0,1,353,265Zm8-44a8,8,0,0,0-8-8H299a8,8,0,0,0-8,8v34a8,8,0,0,0,8,8h2v9.709L310.709,263H353a8,8,0,0,0,8-8V221Z"/>
  <path class="cls-1" d="M337.714,231.735l-13.947,13.947a1.153,1.153,0,0,1-1.534,0l-6.947-6.947a1.025,1.025,0,1,1,1.449-1.449L323,243.551l13.265-13.265A1.025,1.025,0,1,1,337.714,231.735Z"/>
  <circle class="cls-2" cx="175" cy="273" r="59"/>
  <path data-id="Polygon_1" data-name="Polygon 1" class="cls-3" d="M198,273l-38,18.008V254.992Z"/>
  <circle class="cls-2" cx="32.5" cy="302.5" r="29.5"/>
  <path data-id="Polygon_1-2" data-name="Polygon 1" class="cls-3" d="M44,302.5l-19,9V293.5Z"/>
  <circle class="cls-2" cx="87" cy="316" r="15"/>
  <path data-id="Polygon_1-3" data-name="Polygon 1" class="cls-3" d="M93.942,316L83,321.318V310.682Z"/>
  <path data-id="Shape" class="cls-4" d="M270.7,192.7a1.038,1.038,0,0,1-1.469,0l-3.511-3.511a10.064,10.064,0,1,1,1.571-1.368l3.409,3.41A1.038,1.038,0,0,1,270.7,192.7ZM260,173a8,8,0,1,1-8,8A8,8,0,0,1,260,173Zm3,9h-2v2a1,1,0,0,1-2,0v-2h-2a1,1,0,0,1,0-2h2v-2a1,1,0,0,1,2,0v2h2A1,1,0,0,1,263,182Z"/>
  <path class="cls-5" d="M252,156h17"/>
  <path class="cls-5" d="M257,150l-6,6,6,6"/>
  <path data-id="Shape-2" data-name="Shape" class="cls-1" d="M306.7,319.7a1.038,1.038,0,0,1-1.469,0l-3.09-3.09a7.055,7.055,0,1,1,1.469-1.469l3.09,3.09A1.038,1.038,0,0,1,306.7,319.7ZM298,306a5,5,0,1,1-5,5A5,5,0,0,1,298,306Zm2,6h-1v1a1,1,0,0,1-2,0v-1h-1a1,1,0,0,1,0-2h1v-1a1,1,0,0,1,2,0v1h1A1,1,0,0,1,300,312Z"/>
  <path data-id="Rounded_Rectangle" data-name="Rounded Rectangle" class="cls-1" d="M231,122H201.776l-8.174,7.383a2.856,2.856,0,0,1-2.6.514V122h-4a2,2,0,0,1-2-2V89a2,2,0,0,1,2-2h44a2,2,0,0,1,2,2v31A2,2,0,0,1,231,122Zm0-33H187v31h6v6.716a1.173,1.173,0,0,0,1.225-.514l7.11-6.2H231V89Z"/>
  <path data-id="Rounded_Rectangle-2" data-name="Rounded Rectangle" class="cls-1" d="M242,132h-4v7.948a2.51,2.51,0,0,1-2.414-.514L227.271,132H202a1,1,0,0,1,0-2h26.4l6.191,5.535a1.572,1.572,0,0,0,1.405.648V130h6V99h-5a1,1,0,0,1,0-2h5a2,2,0,0,1,2,2v31A2,2,0,0,1,242,132Z"/>
  <path data-id="Rounded_Rectangle-3" data-name="Rounded Rectangle" class="cls-1" d="M218.707,99.694l-10,9.992a1.013,1.013,0,0,1-1.427,0l-5.993-5.983a1.008,1.008,0,0,1,1.427-1.424L208,107.553l9.286-9.281A1.006,1.006,0,0,1,218.707,99.694Z"/>
  <path class="cls-1" d="M190,200V157.953L200.954,147H232v53H190Zm2-2V158.7l9.7-9.7H230v49H192Z"/>
  <path data-id="Rounded" class="cls-1" d="M199,163h24a1,1,0,0,1,0,2H199A1,1,0,0,1,199,163Zm-9-3v-2h11V147h2v13H190Z"/>
  <path data-id="Rounded-2" data-name="Rounded" class="cls-1" d="M199,168h24a1,1,0,1,1,0,2H199A1,1,0,1,1,199,168Z"/>
  <path data-id="Rounded-3" data-name="Rounded" class="cls-1" d="M199,173h16a1,1,0,0,1,0,2H199A1,1,0,0,1,199,173Z"/>
  <path data-id="Rounded-4" data-name="Rounded" class="cls-1" d="M218.707,183.694l-8,7.992a1.013,1.013,0,0,1-1.427,0l-4.993-4.983a1.008,1.008,0,1,1,1.427-1.424L210,189.553l7.286-7.281A1.006,1.006,0,0,1,218.707,183.694Z"/>
  <path class="cls-1" d="M405,269V219.876L413.9,211H453v58H405Zm2-2V220.96L414.789,213H451v54H407Z"/>
  <path data-id="Rounded-5" data-name="Rounded" class="cls-1" d="M416,227h26a1,1,0,0,1,0,2H416A1,1,0,0,1,416,227Zm-11-5v-2h9v-9h2v11H405Z"/>
  <path data-id="Rounded-6" data-name="Rounded" class="cls-1" d="M416,232h26a1,1,0,1,1,0,2H416A1,1,0,1,1,416,232Z"/>
  <path data-id="Rounded-7" data-name="Rounded" class="cls-1" d="M416,237h26a1,1,0,0,1,0,2H416A1,1,0,0,1,416,237Zm0,5h16a1,1,0,0,1,0,2H416A1,1,0,0,1,416,242Zm0,14h8a1,1,0,0,1,0,2h-8A1,1,0,0,1,416,256Z"/>
  <path data-id="Rounded-8" data-name="Rounded" class="cls-1" d="M442.706,251.7l-6.994,6.99a1.016,1.016,0,0,1-1.43,0l-2.993-2.983a1.008,1.008,0,1,1,1.427-1.424L435,256.553l6.284-6.281A1.007,1.007,0,1,1,442.706,251.7Z"/>
  <circle data-id="Ellipse" class="cls-6" cx="261" cy="243" r="12"/>
  <path data-id="Rounded-9" data-name="Rounded" class="cls-4" d="M266.745,240.642l-5.947,5.947a0.907,0.907,0,0,1-.082.123,0.97,0.97,0,0,1-.707.281,0.95,0.95,0,0,1-.695-0.278c-0.019-.019-0.026-0.045-0.044-0.066l-3.009-2.994a0.963,0.963,0,0,1,0-1.371,0.982,0.982,0,0,1,1.382,0l2.378,2.366,5.366-5.365A0.96,0.96,0,1,1,266.745,240.642Z"/>
  <path class="cls-7" d="M269,348H257"/>
  <path class="cls-7" d="M264,343l5,5-5,5"/>
  <path data-id="Shape-3" data-name="Shape" class="cls-4" d="M2.5,337A1.5,1.5,0,1,1,1,338.5,1.5,1.5,0,0,1,2.5,337Zm7,0A1.5,1.5,0,1,1,8,338.5,1.5,1.5,0,0,1,9.5,337Zm7,0a1.5,1.5,0,1,1-1.5,1.5A1.5,1.5,0,0,1,16.5,337Z"/>
  <path data-id="Rectangle" class="cls-4" d="M16.5,336a1.5,1.5,0,0,0,0-3H19v3H16.5ZM15,334.5a1.5,1.5,0,0,0,1.5,1.5h-7a1.5,1.5,0,0,0,0-3h7A1.5,1.5,0,0,0,15,334.5Zm-7,0A1.5,1.5,0,0,0,9.5,336h-7a1.5,1.5,0,0,0,0-3h7A1.5,1.5,0,0,0,8,334.5Zm-7,0A1.5,1.5,0,0,0,2.5,336H0v-3H2.5A1.5,1.5,0,0,0,1,334.5Z"/>
  <path data-id="Rectangle-2" data-name="Rectangle" class="cls-8" d="M20.014,333h4.973L22.5,335.984Z"/>
  <path data-id="Rectangle-3" data-name="Rectangle" class="cls-4" d="M20.014,337h4.973L22.5,339.984Z"/>
  <path data-id="Rectangle-4" data-name="Rectangle" class="cls-4" d="M31.014,338h4.973L33.5,340.984Z"/>
  <path data-id="Rectangle-5" data-name="Rectangle" class="cls-8" d="M39.014,341h4.973L41.5,337.985Z"/>
  <path data-id="Rectangle-6" data-name="Rectangle" class="cls-8" d="M47.014,338h4.973L49.5,341.015Z"/>
  <circle class="cls-9" cx="261" cy="216" r="12"/>
  <rect class="cls-2" x="256" y="215" width="10" height="2" rx="1" ry="1"/>
  <path data-id="Rounded_Rectangle-4" data-name="Rounded Rectangle" class="cls-10" d="M262.537,262.406l9.182,14.884a1.107,1.107,0,0,1-.331,1.709H252.634a1.05,1.05,0,0,1-.33-1.709l9.182-14.884C262.052,261.853,261.97,261.853,262.537,262.406Z"/>
  <path data-id="Rectangle-7" data-name="Rectangle" class="cls-4" d="M261,268h2v5h-2v-5Zm0,6h2v2h-2v-2Z"/>
  <circle data-id="Ellipse-2" data-name="Ellipse" class="cls-11" cx="30" cy="162" r="9"/>
  <path data-id="Rounded-10" data-name="Rounded" class="cls-4" d="M29.646,164.828l4.243-4.242a1,1,0,0,0-1.414-1.414l-4.243,4.242A1,1,0,0,0,29.646,164.828Z"/>
  <path data-id="Rounded-11" data-name="Rounded" class="cls-4" d="M29.646,164.828a1,1,0,0,0,0-1.414l-2.121-2.121a1,1,0,1,0-1.414,1.414l2.121,2.121A1,1,0,0,0,29.646,164.828Z"/>
  <path data-id="Thumb_up" data-name="Thumb up" class="cls-12" d="M268.977,320.409l-1.3,6.258c0,0.007,0,.014,0,0.021a1.464,1.464,0,0,1-1.749,1.343L258.533,328a0.808,0.808,0,0,1-.5-0.493l-0.02-7,0.087-.027a4.507,4.507,0,0,0,2.892-4.117v-2.345a4.218,4.218,0,0,1,2.141.158,2.279,2.279,0,0,1,.878,1.86l-0.094,2.391a0.59,0.59,0,0,0,.6.582h3.281a1.189,1.189,0,0,1,1.2,1.174A1.833,1.833,0,0,1,268.977,320.409Z"/>
  <path class="cls-6" d="M255,319h1a0,0,0,0,1,0,0v10a0,0,0,0,1,0,0h-1a1,1,0,0,1-1-1v-8A1,1,0,0,1,255,319Z"/>
  <path data-id="Plane" class="cls-4" d="M469.059,1.685a2.784,2.784,0,0,0-3.005-.431L285.611,85.023a2.777,2.777,0,0,0-.053,5.013l51.065,25.039a2.78,2.78,0,0,0,2.889-.269l49.65-37.077-38.977,40.059a2.778,2.778,0,0,0-.779,2.149l3.881,50.5a2.782,2.782,0,0,0,4.877,1.6l27.1-31.382,33.506,16a2.782,2.782,0,0,0,3.851-1.675L469.878,4.606A2.775,2.775,0,0,0,469.059,1.685Z"/>
  <path data-id="Rounded-12" data-name="Rounded" class="cls-1" d="M55,164a1,1,0,0,1-1-1v-1.612l-3.285,3.285a1,1,0,1,1-1.414-1.414L52.559,160H51a1,1,0,0,1,0-2h4.5a0.5,0.5,0,0,1,.5.5V163A1,1,0,0,1,55,164Zm-2,4a1,1,0,0,1-1,1H46a1,1,0,0,1-1-1v-6a1,1,0,0,1,2,0v5h5A1,1,0,0,1,53,168Z"/>
  <path class="cls-12" d="M24,177a12,12,0,0,1,12,12"/>
  <path class="cls-12" d="M24,182a7,7,0,0,1,7,7"/>
  <circle class="cls-6" cx="25" cy="188" r="2"/>
  <path class="cls-13" d="M24,116H57a4,4,0,0,1,4,4v22a4,4,0,0,1-4,4H24a4,4,0,0,1-4-4V120A4,4,0,0,1,24,116Zm0,2H57a2,2,0,0,1,2,2v22a2,2,0,0,1-2,2H24a2,2,0,0,1-2-2V120A2,2,0,0,1,24,118Z"/>
  <path class="cls-14" d="M26.141,139.821l8.9-8.519m10.627-.221,9.206,8.805"/>
  <path class="cls-14" d="M22.947,119.087l17.507,17.151L58.04,119.02"/>
  <rect class="cls-15" x="3" y="124" width="13" height="2" rx="1" ry="1"/>
  <rect class="cls-16" x="6" y="130" width="10" height="2" rx="1" ry="1"/>
  <rect class="cls-15" x="9" y="136" width="7" height="2" rx="1" ry="1"/>
  <path class="cls-17" d="M3,164h8v2H3v-2Zm8,10H8v3H6v-3H3v-2H6v-3H8v3h3v2Z"/>
  <path class="cls-4" d="M3,180h8v2H3v-2Zm8,9H8v3H6v-3H3v-2H6v-3H8v3h3v2Z"/>
  <path data-id="Polygon_1-4" data-name="Polygon 1" class="cls-4" d="M13,154L3,159V149Z"/>
  <path class="cls-18" d="M156,196a3,3,0,0,1-3,3H69a3,3,0,0,1-3-3V142a2.983,2.983,0,0,1,1.005-2.226l-0.034-.022,0.3-.194c0.046-.033.094-0.062,0.142-0.093L80,131.244v2.611L68.989,141a1,1,0,0,0-.889.577l-0.009.006,0,0A0.989,0.989,0,0,0,68,142v54a1,1,0,0,0,1,1h84a1,1,0,0,0,1-1V142a0.989,0.989,0,0,0-.095-0.413l0,0-0.007,0a1,1,0,0,0-.89-0.578L142,133.855v-2.611l12.588,8.22c0.05,0.031.1,0.062,0.146,0.095l0.295,0.193-0.034.022A2.982,2.982,0,0,1,156,142v54Zm-30.724-73L111,113.734,96.724,123h-4.1L111,111l18.374,12h-4.1Z"/>
  <path class="cls-19" d="M77,188l21.754-19.871m24.2-.2,22.041,20.033"/>
  <path class="cls-19" d="M154.4,140.784L122.877,168H99.123L67.462,140.669"/>
  <path class="cls-18" d="M141,151.97V124H81v28.315l-2-1.81V122h64v28.15Z"/>
  <path data-id="Key" class="cls-18" d="M130.733,144.707l-4.055,4.055a1,1,0,0,1-1.414,0l-1.415-1.414-1.414,1.414a1,1,0,0,1-1.414,0l-1.414-1.414-1.415,1.414a1,1,0,0,1-1.414,0l-1.414-1.414-1.414,1.414a1,1,0,0,1-.707.293h-1.48a11,11,0,1,1,.015-10.079H125.97a1,1,0,0,1,.708.293l4.055,4.024A1,1,0,0,1,130.733,144.707ZM102,135a9,9,0,1,0,9,9A9,9,0,0,0,102,135Zm23.556,5.976H112.569a10.837,10.837,0,0,1-.008,6.079h0.267l1.829-1.828a1,1,0,0,1,1.414,0l1.414,1.414,1.415-1.414a1,1,0,0,1,1.414,0l1.414,1.414,1.414-1.414a1,1,0,0,1,1.414,0l1.414,1.414L128.612,144Zm-27.163,6.56a5,5,0,1,1,7.072,0A5.007,5.007,0,0,1,98.393,147.536Zm5.657-5.657a3,3,0,1,0,0,4.242A3,3,0,0,0,104.05,141.879Z"/>
  <path data-id="Check" class="cls-4" d="M174.691,190.667l-5.95,6.057a1,1,0,0,1-1.414,0l-3.055-3.024a1,1,0,1,1,1.414-1.414L168,194.609l5.28-5.355A1,1,0,0,1,174.691,190.667Z"/>
  <path class="cls-1" d="M174,147a2.964,2.964,0,0,1-1.848-.654l-3.264,1.885a2.694,2.694,0,0,1,0,1.554l3.255,1.88A2.988,2.988,0,1,1,171,154a3,3,0,0,1,.072-0.641l-3.331-1.924a3,3,0,1,1,.013-4.859l3.323-1.919A3,3,0,1,1,174,147Zm0,8.188A1.188,1.188,0,1,0,172.812,154,1.188,1.188,0,0,0,174,155.188Zm-8-7.375A1.187,1.187,0,1,0,167.188,149,1.187,1.187,0,0,0,166,147.813Zm8-5A1.188,1.188,0,1,0,175.188,144,1.188,1.188,0,0,0,174,142.812Z"/>
  <path class="cls-4" d="M163,166h10v2H163v-2Zm11,13h-4v4h-2v-4h-4v-2h4v-4h2v4h4v2Z"/>
  <path class="cls-1" d="M203,46h10v2H203V46Zm-16,2h4v4h2V48h4V46h-4V42h-2v4h-4v2Z"/>
  <path class="cls-5" d="M241,23H223"/>
  <path class="cls-5" d="M235,17l6,6-6,6"/>
  <path class="cls-12" d="M241,7H223"/>
  <path class="cls-12" d="M235,1l6,6-6,6"/>
  <path class="cls-12" d="M201,7h18"/>
  <path class="cls-12" d="M207,1l-6,6,6,6"/>
  <path data-id="Print" class="cls-20" d="M138.5,12H136v2h-8V12h-2.5a1.5,1.5,0,0,1-1.5-1.5v-5A1.5,1.5,0,0,1,125.5,4H128V0h8V4h2.5A1.5,1.5,0,0,1,140,5.5v5A1.5,1.5,0,0,1,138.5,12ZM130,12h4V10h-4v2Zm4-10h-4V4h4V2Zm4,4H126v4h2V8h8v2h2V6Z"/>
  <path data-id="Print-2" data-name="Print" class="cls-4" d="M155.5,12H153v2h-8V12h-2.5a1.5,1.5,0,0,1-1.5-1.5v-5A1.5,1.5,0,0,1,142.5,4H145V0h8V4h2.5A1.5,1.5,0,0,1,157,5.5v5A1.5,1.5,0,0,1,155.5,12ZM147,12h4V10h-4v2Zm4-10h-4V4h4V2Zm4,4H143v4h2V8h8v2h2V6Z"/>
  <path class="cls-21" d="M0,3H8V5H0V3ZM17,5H14V8H12V5H9V3h3V0h2V3h3V5Z"/>
  <path class="cls-22" d="M0,12H8v2H0V12Zm17,2H14v3H12V14H9V12h3V9h2v3h3v2Z"/>
  <path data-id="Check-2" data-name="Check" class="cls-4" d="M28.692,1.667L22.9,7.724a1,1,0,0,1-1.414,0L18.272,4.7a1,1,0,0,1,1.414-1.414l2.468,2.323,5.124-5.355A1,1,0,0,1,28.692,1.667Z"/>
  <path data-id="Check-3" data-name="Check" class="cls-23" d="M197.691,20.668L191.9,26.724a1,1,0,0,1-1.415,0L187.272,23.7a1,1,0,1,1,1.414-1.414l2.468,2.324,5.123-5.355A1,1,0,0,1,197.691,20.668Z"/>
  <path data-id="Check-4" data-name="Check" class="cls-24" d="M213.691,20.668L207.9,26.724a1,1,0,0,1-1.415,0L203.272,23.7a1,1,0,1,1,1.414-1.414l2.468,2.324,5.123-5.355A1,1,0,0,1,213.691,20.668Z"/>
  <path data-id="Check-5" data-name="Check" class="cls-25" d="M213.691,30.668L207.9,36.724a1,1,0,0,1-1.415,0L203.272,33.7a1,1,0,1,1,1.414-1.414l2.468,2.324,5.123-5.355A1,1,0,0,1,213.691,30.668Z"/>
  <path data-id="Check-6" data-name="Check" class="cls-26" d="M197.691,30.668L191.9,36.724a1,1,0,0,1-1.415,0L187.272,33.7a1,1,0,1,1,1.414-1.414l2.468,2.324,5.123-5.355A1,1,0,0,1,197.691,30.668Z"/>
  <path data-id="Shape-4" data-name="Shape" class="cls-4" d="M47.7,15.7a1.039,1.039,0,0,1-1.469,0l-3.09-3.09A6.982,6.982,0,1,1,46,7a6.941,6.941,0,0,1-1.386,4.145l3.09,3.09A1.039,1.039,0,0,1,47.7,15.7ZM39,2a5,5,0,1,0,5,5A5,5,0,0,0,39,2Z"/>
  <path data-id="Shape-5" data-name="Shape" class="cls-1" d="M199.7,15.7a1.039,1.039,0,0,1-1.469,0l-3.09-3.09A6.982,6.982,0,1,1,198,7a6.942,6.942,0,0,1-1.386,4.145l3.09,3.09A1.038,1.038,0,0,1,199.7,15.7ZM191,2a5,5,0,1,0,5,5A5,5,0,0,0,191,2Z"/>
  <path data-id="X" class="cls-1" d="M93.414,7l5.3,5.3A1,1,0,0,1,97.3,13.717L92,8.414l-5.3,5.3A1,1,0,1,1,85.282,12.3l5.3-5.3-5.3-5.3A1,1,0,1,1,86.7.282l5.3,5.3,5.3-5.3A1,1,0,1,1,98.718,1.7Z"/>
  <path data-id="X-2" data-name="X" class="cls-4" d="M59.7,9.282L65.718,15.3A1,1,0,0,1,64.3,16.717L58.282,10.7A1,1,0,0,1,59.7,9.282Z"/>
  <path data-id="X-3" data-name="X" class="cls-4" d="M58.282,15.3L64.3,9.282A1,1,0,1,1,65.718,10.7L59.7,16.717A1,1,0,0,1,58.282,15.3Z"/>
  <path data-id="X-4" data-name="X" class="cls-18" d="M59.7,0.282L65.718,6.3A1,1,0,1,1,64.3,7.717L58.282,1.7A1,1,0,1,1,59.7.282Z"/>
  <path data-id="X-5" data-name="X" class="cls-18" d="M58.282,6.3L64.3,0.282A1,1,0,1,1,65.718,1.7L59.7,7.717A1,1,0,1,1,58.282,6.3Z"/>
  <path data-id="X-6" data-name="X" class="cls-4" d="M49,0h8V8H49V0Zm5.414,4,2.3,2.3A1,1,0,1,1,55.3,7.717L53,5.414l-2.3,2.3A1,1,0,1,1,49.282,6.3l2.3-2.3-2.3-2.3A1,1,0,1,1,50.7.282l2.3,2.3,2.3-2.3A1,1,0,1,1,56.718,1.7Z"/>
  <path data-id="Rectangle-8" data-name="Rectangle" class="cls-27" d="M170,0h13V12H170V0Zm1,1h11V3H171V1Zm0,4h11V7H171V5Zm0,4h8v2h-8V9Z"/>
  <rect data-id="Rectangle-9" data-name="Rectangle" class="cls-28" x="243" width="38" height="39"/>
  <path data-id="Ellipse-3" data-name="Ellipse" class="cls-29" d="M266,16a1,1,0,0,1,0-2h1.571a7.487,7.487,0,1,0,1.56,9h2.2A9.5,9.5,0,1,1,262.5,10a9.34,9.34,0,0,1,6.5,2.642V11a1,1,0,0,1,2,0v5h-5Z"/>
  <circle data-id="Circle" class="cls-30" cx="136" cy="63" r="44"/>
  <circle data-id="Circle-2" data-name="Circle" class="cls-31" cx="45" cy="63" r="44"/>
  <circle data-id="Circle-3" data-name="Circle" class="cls-31" cx="38" cy="77" r="6"/>
  <circle data-id="Circle-4" data-name="Circle" class="cls-31" cx="54" cy="77" r="6"/>
  <path data-id="Circle-5" data-name="Circle" class="cls-19" d="M22,46h6l5,21H59l3-14H30"/>
  <path class="cls-32" d="M115,63l14,14,28.009-28.013"/>
  <path data-id="Rectangle-10" data-name="Rectangle" class="cls-1" d="M249,83h14.364L271,90.7V110H249V83Zm2,2h11.5l6.5,6.5V108H251V85Zm15-2h5v5Z"/>
  <path data-id="Rectangle-11" data-name="Rectangle" class="cls-4" d="M250,114h14.364L272,121.7V141H250V114Zm2,2h11.5l6.5,6.5V139H252V116Zm15-2h5v5Z"/>
  <path data-id="Cart" class="cls-1" d="M117,4c0,0.012-.006.022-0.007,0.034a0.916,0.916,0,0,1,0,.181L115.9,9.1a0.56,0.56,0,0,1-.024.054,0.987,0.987,0,0,1-.97.851H105a0.983,0.983,0,0,1-.763-0.376,0.983,0.983,0,0,1-.283-0.573L103.048,2H101a1,1,0,1,1,0-2h2.906c0.025,0,.046.012,0.07,0.014a0.977,0.977,0,0,1,.319.064h0a0.99,0.99,0,0,1,.624.808L105.192,3H116a0.922,0.922,0,0,1,.093.019,0.937,0.937,0,0,1,.138,0,0.956,0.956,0,0,1,.1.046,0.981,0.981,0,0,1,.112.05,0.965,0.965,0,0,1,.235.158c0.017,0.016.032,0.033,0.048,0.05a0.985,0.985,0,0,1,.179.266c0.007,0.015.012,0.031,0.018,0.047a0.96,0.96,0,0,1,.067.333A0.274,0.274,0,0,1,117,4h0ZM105.835,8h8.26l0.67-3h-9.316Zm0.669,3.012A2.488,2.488,0,1,1,104,13.5,2.5,2.5,0,0,1,106.5,11.012Zm0,3.063a0.575,0.575,0,1,0-.579-0.575A0.577,0.577,0,0,0,106.5,14.075Zm7-3.079a2.5,2.5,0,1,1-2.5,2.5A2.5,2.5,0,0,1,113.5,11Zm0,3.079a0.575,0.575,0,1,0-.579-0.575A0.577,0.577,0,0,0,113.5,14.075Z"/>
  <path data-id="Cart-2" data-name="Cart" class="cls-4" d="M83.993,4.034a0.955,0.955,0,0,1,0,.181L82.9,9.1c0,0.02-.018.034-0.024,0.054a0.987,0.987,0,0,1-.97.851H72a1.159,1.159,0,0,1-1.046-.948L70.048,2H68a1,1,0,0,1,0-2h2.906c0.025,0,.046.012,0.07,0.014a0.975,0.975,0,0,1,.318.064h0a0.99,0.99,0,0,1,.624.808L72.192,3H83a0.653,0.653,0,0,0,.231.022,0.935,0.935,0,0,1,.1.046,1.166,1.166,0,0,1,.347.208c0.017,0.016.032,0.033,0.048,0.05a0.976,0.976,0,0,1,.179.266c0.007,0.015.012,0.031,0.018,0.047a0.97,0.97,0,0,1,.067.333C83.995,3.982,84,3.99,84,4h0C84,4.012,83.994,4.022,83.993,4.034ZM72.449,5l0.386,3H81.1l0.67-3H72.449ZM73.5,11.012A2.488,2.488,0,1,1,71,13.5,2.5,2.5,0,0,1,73.5,11.012Zm0,3.063a0.575,0.575,0,1,0-.579-0.575A0.577,0.577,0,0,0,73.5,14.075ZM80.5,11a2.5,2.5,0,1,1-2.5,2.5A2.5,2.5,0,0,1,80.5,11Zm0,3.079a0.575,0.575,0,1,0-.579-0.575A0.577,0.577,0,0,0,80.5,14.075Z"/>
  <path data-id="Email" class="cls-1" d="M175.25,134h-12.5a1.751,1.751,0,0,1-1.75-1.75v-9.5a1.751,1.751,0,0,1,1.75-1.75h12.5a1.751,1.751,0,0,1,1.75,1.75v9.5A1.751,1.751,0,0,1,175.25,134Zm-10.717-11,4.482,4.482L173.5,123h-8.965ZM175,124.5l-5.173,5.173a1.251,1.251,0,0,1-1.623,0l-5.2-5.2V132h12v-7.5Z"/>
  <path data-id="Email-2" data-name="Email" class="cls-4" d="M235.25,52h-12.5A1.75,1.75,0,0,1,221,50.25v-9.5A1.75,1.75,0,0,1,222.75,39h12.5A1.75,1.75,0,0,1,237,40.75v9.5A1.75,1.75,0,0,1,235.25,52ZM224.533,41l4.482,4.483L233.5,41h-8.965ZM235,42.5l-5.173,5.173a1.252,1.252,0,0,1-1.623,0l-5.2-5.2V50h12V42.5Z"/>
  <path data-id="Location_pin" data-name="Location pin" class="cls-4" d="M211.517,59A6.517,6.517,0,0,0,205,65.515a6.412,6.412,0,0,0,1.237,3.783,0.778,0.778,0,0,0,.031.078l4.345,5.2a1.086,1.086,0,0,0,1.808,0l4.345-5.2c0.016-.025.018-0.053,0.032-0.078a6.418,6.418,0,0,0,1.237-3.783A6.518,6.518,0,0,0,211.517,59Zm3.368,9.509-3.368,4.041-3.369-4.041a6.828,6.828,0,0,1-1.123-3.028,4.492,4.492,0,1,1,8.983,0A5.6,5.6,0,0,1,214.885,68.507Zm-3.369-4.493a1.5,1.5,0,1,0,1.5,1.5A1.5,1.5,0,0,0,211.516,64.015Z"/>
  <path data-id="Location_pin-2" data-name="Location pin" class="cls-1" d="M261.517,289A6.517,6.517,0,0,0,255,295.515a6.415,6.415,0,0,0,1.237,3.784c0.013,0.025.015,0.053,0.031,0.078l4.345,5.2a1.086,1.086,0,0,0,1.808,0l4.345-5.2c0.016-.025.018-0.053,0.032-0.078a6.422,6.422,0,0,0,1.237-3.784A6.518,6.518,0,0,0,261.517,289Zm3.368,9.509-3.368,4.041-3.369-4.041a6.826,6.826,0,0,1-1.123-3.028,4.492,4.492,0,1,1,8.983,0A5.6,5.6,0,0,1,264.885,298.507Zm-3.369-4.492a1.5,1.5,0,1,0,1.5,1.5A1.5,1.5,0,0,0,261.516,294.015Z"/>
  <path data-id="Phone" class="cls-1" d="M235.986,71.278a0.483,0.483,0,0,0-.027-0.194,1.632,1.632,0,0,0-.7-0.49c-0.526-.3-1.06-0.582-1.577-0.887a1.894,1.894,0,0,0-.82-0.425c-0.563,0-1.383,1.673-1.881,1.673a1.974,1.974,0,0,1-.793-0.36,9.187,9.187,0,0,1-3.771-3.781,1.992,1.992,0,0,1-.36-0.8c0-.5,1.669-1.322,1.669-1.885a1.907,1.907,0,0,0-.424-0.823c-0.3-.518-0.59-1.054-0.885-1.581a1.636,1.636,0,0,0-.489-0.7A0.477,0.477,0,0,0,225.733,61a4.087,4.087,0,0,0-1.281.287,2.435,2.435,0,0,0-.978,1.128,3.542,3.542,0,0,0-.47,1.72,7.158,7.158,0,0,0,.636,2.422,8.639,8.639,0,0,0,.766,1.618,15.589,15.589,0,0,0,4.425,4.437,8.681,8.681,0,0,0,1.614.768,7.1,7.1,0,0,0,2.416.638,3.515,3.515,0,0,0,1.715-.472,2.43,2.43,0,0,0,1.125-.98A4.131,4.131,0,0,0,235.986,71.278Z"/>
  <path data-id="Phone-2" data-name="Phone" class="cls-4" d="M199.986,70.278a0.483,0.483,0,0,0-.027-0.194,1.632,1.632,0,0,0-.7-0.49c-0.526-.3-1.06-0.582-1.577-0.887a1.894,1.894,0,0,0-.82-0.425c-0.563,0-1.383,1.673-1.881,1.673a1.974,1.974,0,0,1-.793-0.36,9.187,9.187,0,0,1-3.771-3.781,1.992,1.992,0,0,1-.36-0.8c0-.5,1.669-1.322,1.669-1.885a1.907,1.907,0,0,0-.424-0.823c-0.3-.518-0.59-1.054-0.885-1.581a1.636,1.636,0,0,0-.489-0.7A0.477,0.477,0,0,0,189.733,60a4.087,4.087,0,0,0-1.281.287,2.435,2.435,0,0,0-.978,1.128,3.542,3.542,0,0,0-.47,1.72,7.158,7.158,0,0,0,.636,2.422,8.639,8.639,0,0,0,.766,1.618,15.589,15.589,0,0,0,4.425,4.437,8.681,8.681,0,0,0,1.614.768,7.1,7.1,0,0,0,2.416.638,3.515,3.515,0,0,0,1.715-.472,2.43,2.43,0,0,0,1.125-.98A4.131,4.131,0,0,0,199.986,70.278Z"/>
  <path data-id="Rounded-13" data-name="Rounded" class="cls-4" d="M168.788,5.393L164.54,9.64a0.788,0.788,0,0,1-.691.211,0.8,0.8,0,0,1-.569-0.235l-2.067-2.13a0.8,0.8,0,0,1,1.135-1.135l1.582,1.63,3.723-3.723A0.8,0.8,0,1,1,168.788,5.393Z"/>
</svg>
