<svg xmlns="http://www.w3.org/2000/svg" width="26" height="156" viewBox="0 0 26 156">
  <defs>
    <style>
      .cls-1 {
        fill: #485764;
      }

      .cls-1, .cls-2, .cls-3, .cls-4, .cls-5, .cls-6, .cls-7 {
        fill-rule: evenodd;
      }

      .cls-2 {
        fill: #1285ba;
      }

      .cls-3 {
        fill: #6c757c;
      }

      .cls-4 {
        fill: #1284b9;
      }

      .cls-5 {
        fill: #fe9b00;
      }

      .cls-6 {
        fill: none;
        stroke: #c60010;
        stroke-linecap: round;
        stroke-width: 2px;
      }

      .cls-7 {
        fill: #3e3e3e;
      }
    </style>
  </defs>
  <path class="cls-1" d="M25,145.244c0,4.228-2.4,7.462-5.953,7.73a1.252,1.252,0,0,0-2.389.026H14.18a1.252,1.252,0,0,0-2.4,0H9.455a1.252,1.252,0,0,0-2.391-.021C3.45,152.762,1,149.51,1,145.244a10.174,10.174,0,0,1,3.037-6.566,3.518,3.518,0,0,0,.938-2.635l0.009-1.8c0-.02-0.006-0.038-0.006-0.059a1.025,1.025,0,1,1,2.025,0c0,0.02,0,.039-0.006.059-0.006.5-.076,4.371-0.82,5.061-0.976.905-2.776,3.366-2.776,5.75,0,5.284,3.636,5.568,3.636,5.568H18.981s3.625-.284,3.625-5.568c0-2.384-1.794-4.845-2.767-5.75-0.712-.663-0.813-4.256-0.826-4.985A1.143,1.143,0,0,1,19,134.187a1.009,1.009,0,1,1,1.988,0s0,0,0,0h0.04l-0.022,1.851a3.619,3.619,0,0,0,.966,2.635A10.186,10.186,0,0,1,25,145.244Z"/>
  <path class="cls-2" d="M8.9,150.365H6.006A6.533,6.533,0,0,1,2.8,145.329c-0.151-2.541,1.464-5.727,3.92-6.742A9.313,9.313,0,0,0,4.825,144.2,6.874,6.874,0,0,0,8.9,150.365Z"/>
  <path class="cls-2" d="M23.192,145.329a6.533,6.533,0,0,1-3.208,5.036H17.1a6.874,6.874,0,0,0,4.07-6.169,9.314,9.314,0,0,0-1.887-5.6C21.735,139.611,23.343,142.793,23.192,145.329Z"/>
  <path class="cls-1" d="M3.815,148.741a37.751,37.751,0,0,0,9.04,1.281,41.188,41.188,0,0,0,9.38-1.281v2.522H3.815v-2.522Z"/>
  <path class="cls-3" d="M5,125H21a1,1,0,0,1,0,2H5A1,1,0,0,1,5,125Zm11-11.515-6,3.378V112h0l2.719-5h0.563L16,112h0v1.485Zm0,4.621V124H10v-2.516Z"/>
  <path class="cls-4" d="M6.476,120.134l12.077-7a0.954,0.954,0,0,1,1.325.366,1.017,1.017,0,0,1-.355,1.366l-12.077,7a0.954,0.954,0,0,1-1.325-.366A1.017,1.017,0,0,1,6.476,120.134Z"/>
  <path class="cls-5" d="M11.447,33.2A6,6,0,1,1,7.2,40.553,6,6,0,0,1,11.447,33.2Zm0.514,1.919a4.014,4.014,0,1,1-2.838,4.916A4.014,4.014,0,0,1,11.961,35.123Zm3.994-7.153a1.038,1.038,0,0,1,.734,1.271l-0.42,1.567a1.038,1.038,0,0,1-2.005-.537l0.42-1.567A1.038,1.038,0,0,1,15.956,27.97ZM10.985,46.521a1.038,1.038,0,0,1,.734,1.271l-0.4,1.5a1.038,1.038,0,0,1-2.006-.537l0.4-1.5A1.038,1.038,0,0,1,10.985,46.521ZM3.241,35.31l1.567,0.42a1.038,1.038,0,0,1-.537,2.005L2.7,37.316A1.038,1.038,0,0,1,3.241,35.31Zm18.551,4.971,1.5,0.4a1.038,1.038,0,0,1-.537,2.005l-1.5-.4A1.038,1.038,0,1,1,21.792,40.281ZM10.045,27.97a1.038,1.038,0,0,1,1.271.734l0.42,1.567a1.038,1.038,0,0,1-2.005.537L9.31,29.241A1.038,1.038,0,0,1,10.045,27.97Zm4.971,18.551a1.038,1.038,0,0,1,1.271.734l0.4,1.5a1.038,1.038,0,0,1-2.005.537l-0.4-1.5A1.038,1.038,0,0,1,15.015,46.521Zm-10.09-15.6a1.038,1.038,0,0,1,1.468,0L7.54,32.072A1.038,1.038,0,0,1,6.072,33.54L4.925,32.393A1.038,1.038,0,0,1,4.925,30.925Zm13.58,13.58a1.038,1.038,0,0,1,1.468,0l1.1,1.1a1.038,1.038,0,0,1-1.468,1.468l-1.1-1.1A1.038,1.038,0,0,1,18.506,44.506Zm2.569-13.58a1.038,1.038,0,0,1,0,1.468L19.928,33.54a1.038,1.038,0,0,1-1.468-1.468l1.147-1.147A1.038,1.038,0,0,1,21.075,30.925ZM7.495,44.506a1.038,1.038,0,0,1,0,1.468l-1.1,1.1a1.038,1.038,0,0,1-1.468-1.468l1.1-1.1A1.038,1.038,0,0,1,7.495,44.506ZM24.03,36.045a1.038,1.038,0,0,1-.734,1.271l-1.567.42a1.038,1.038,0,0,1-.537-2.005l1.567-.42A1.038,1.038,0,0,1,24.03,36.045ZM5.479,41.015a1.038,1.038,0,0,1-.734,1.272l-1.5.4A1.038,1.038,0,0,1,2.7,40.684l1.5-.4A1.038,1.038,0,0,1,5.479,41.015Z"/>
  <path class="cls-4" d="M25.31,13.005l-0.544-.943H21.882l1.048-1.816L22.387,9.3H21.3l-1.593,2.759H14.623L17.4,6.978h3.186l0.544-.942-0.544-.943h-2.1l1.2-2.083-0.544-.943H18.062l-1.2,2.083L15.811,2.335H14.723l-0.544.942,1.592,2.759L12.99,11.12,10.209,6.036,11.8,3.277l-0.544-.942H10.17L9.121,4.151l-1.2-2.083H6.831L6.286,3.01l1.2,2.083h-2.1l-0.544.943L5.392,6.978H8.577l2.781,5.085H6.275L4.683,9.3H3.594l-0.544.942L4.1,12.063H1.215l-0.544.943,0.544,0.943H4.1L3.05,15.764l0.544,0.942H4.683l1.593-2.759h5.083L8.577,19.032H5.392l-0.544.942,0.544,0.942h2.1L6.286,23,6.83,23.943H7.919l1.2-2.083,1.049,1.816h1.088l0.544-.942L10.21,19.974,12.99,14.89l2.781,5.085-1.592,2.759,0.544,0.943h1.088L16.86,21.86l1.2,2.083h1.088L19.695,23l-1.2-2.084h2.1l0.544-.942-0.544-.943H17.4l-2.781-5.084h5.083L21.3,16.706h1.088l0.544-.942-1.048-1.816h2.884Z"/>
  <path data-name="Summer_tires" class="cls-5" d="M15.553,96.8a5.733,5.733,0,0,1-1.4.174A0.94,0.94,0,0,1,14,97a1,1,0,0,1,0-2h0v0a4,4,0,1,0,0-8v0h0a1,1,0,0,1,0-2,0.953,0.953,0,0,1,.189.038A5.979,5.979,0,0,1,15.553,96.8Zm1.4-16.826a1.038,1.038,0,0,1,.734,1.271l-0.42,1.567a1.038,1.038,0,0,1-2.005-.537l0.42-1.567A1.038,1.038,0,0,1,16.956,79.97Zm5.837,12.311,1.5,0.4a1.038,1.038,0,0,1-.537,2.005l-1.5-.4A1.038,1.038,0,1,1,22.792,92.281Zm-6.777,6.24a1.038,1.038,0,0,1,1.271.734l0.4,1.5a1.038,1.038,0,0,1-2.005.537l-0.4-1.5A1.038,1.038,0,0,1,16.015,98.521Zm3.49-2.015a1.038,1.038,0,0,1,1.468,0l1.1,1.1a1.038,1.038,0,1,1-1.468,1.468l-1.1-1.1A1.038,1.038,0,0,1,19.506,96.506Zm2.569-13.58a1.038,1.038,0,0,1,0,1.468L20.928,85.54a1.038,1.038,0,1,1-1.468-1.468l1.147-1.147A1.038,1.038,0,0,1,22.075,82.925Zm2.956,5.119a1.038,1.038,0,0,1-.734,1.271l-1.567.42a1.038,1.038,0,0,1-.537-2.005l1.567-.42A1.038,1.038,0,0,1,25.03,88.045Z"/>
  <path data-name="Winter_tires" class="cls-4" d="M14.056,90.984l-3.847,6.99,1.593,2.759-0.544.943H10.17L9.121,99.86l-1.2,2.082H6.83L6.286,101l1.2-2.083h-2.1l-0.544-.942,0.544-.942H8.577l2.781-5.085H6.275L4.683,94.706H3.594L3.05,93.764,4.1,91.948H1.215L0.67,91.005l0.544-.942H4.1L3.05,88.247,3.594,87.3H4.683l1.593,2.759h5.083L8.577,84.978H5.392l-0.544-.942,0.544-.943h2.1l-1.2-2.083,0.544-.942H7.919l1.2,2.083,1.049-1.816h1.088L11.8,81.277l-1.593,2.759Z"/>
  <path class="cls-6" d="M15.152,56.2l9.406,14.586a2.808,2.808,0,0,1,.137,2.783A2.582,2.582,0,0,1,22.405,75H3.594A2.582,2.582,0,0,1,1.3,73.564a2.807,2.807,0,0,1,.138-2.783L10.847,56.2A2.535,2.535,0,0,1,15.152,56.2Z"/>
  <path class="cls-7" d="M8,71V64h2v5h2V64h2v5h2V64h2v7H8Z"/>
</svg>
