<svg xmlns="http://www.w3.org/2000/svg" width="200" height="250" viewBox="0 0 200 250">
  <defs>
    <style>
      .cls-1 {
        fill: #fff;
      }

      .cls-1, .cls-10, .cls-12, .cls-13, .cls-2, .cls-3, .cls-4, .cls-5, .cls-6, .cls-7, .cls-8, .cls-9 {
        fill-rule: evenodd;
      }

      .cls-2 {
        fill: #888;
      }

      .cls-3 {
        fill: #333;
      }

      .cls-4 {
        fill: #e62222;
      }

      .cls-5 {
        fill: #ed1f24;
      }

      .cls-11, .cls-6 {
        fill: #8c8c8c;
      }

      .cls-7 {
        fill: #8f8d8d;
      }

      .cls-8 {
        fill: #1d1a1a;
      }

      .cls-9 {
        fill: #37ac09;
      }

      .cls-10 {
        fill: #fbfbfb;
      }

      .cls-12, .cls-13 {
        fill: none;
        stroke-linecap: round;
        stroke-linejoin: round;
      }

      .cls-12 {
        stroke: #1d1a1a;
        stroke-width: 1.1px;
        opacity: 0.5;
      }

      .cls-13 {
        stroke: #fbfbfb;
        stroke-width: 2px;
      }
    </style>
  </defs>
  <path class="cls-1" d="M31,53h0a1,1,0,0,1,1,1V65H30V54A1,1,0,0,1,31,53Zm4,5h0a1,1,0,0,1,1,1v6H34V59A1,1,0,0,1,35,58Zm4-2h0a1,1,0,0,1,1,1v8H38V57A1,1,0,0,1,39,56ZM27,60a1,1,0,0,1,1,1v4H26V61A1,1,0,0,1,27,60Z"/>
  <path data-name="Compare" class="cls-2" d="M31,25h0a1,1,0,0,1,1,1V37H30V26A1,1,0,0,1,31,25Zm4,5h0a1,1,0,0,1,1,1v6H34V31A1,1,0,0,1,35,30Zm4-2h0a1,1,0,0,1,1,1v8H38V29A1,1,0,0,1,39,28ZM27,32a1,1,0,0,1,1,1v4H26V33A1,1,0,0,1,27,32Z"/>
  <path data-name="Compare" class="cls-3" d="M31,81h0a1,1,0,0,1,1,1V93H30V82A1,1,0,0,1,31,81Zm4,5h0a1,1,0,0,1,1,1v6H34V87A1,1,0,0,1,35,86Zm4-2h0a1,1,0,0,1,1,1v8H38V85A1,1,0,0,1,39,84ZM27,88a1,1,0,0,1,1,1v4H26V89A1,1,0,0,1,27,88Z"/>
  <path class="cls-2" d="M15.968,31.638l0.027,0.014-5.882,5.795H9.88L4.171,31.822c-0.051-.05-0.1-0.1-0.153-0.151l-0.049-.048,0.008,0a4.016,4.016,0,0,1-1.015-2.676A3.854,3.854,0,0,1,6.723,25a3.727,3.727,0,0,1,3.292,2.07A3.7,3.7,0,0,1,13.295,25a3.828,3.828,0,0,1,3.736,3.913A3.99,3.99,0,0,1,15.968,31.638Zm-2.755-4.656c-1.894,0-3.244,3.261-3.244,3.261S8.545,26.983,6.852,27c-1.111.01-1.879,0.409-1.881,1.976,0,1.032,5,5.876,5,5.876s4.952-4.722,4.994-5.791C15.006,27.958,14.664,26.983,13.213,26.983Z"/>
  <path data-name="Wishlist" class="cls-1" d="M15.968,59.638l0.027,0.014-5.882,5.795H9.88L4.171,59.822c-0.051-.05-0.1-0.1-0.153-0.151l-0.049-.048,0.008,0a4.016,4.016,0,0,1-1.015-2.676A3.854,3.854,0,0,1,6.723,53a3.727,3.727,0,0,1,3.292,2.07A3.7,3.7,0,0,1,13.295,53a3.828,3.828,0,0,1,3.736,3.913A3.991,3.991,0,0,1,15.968,59.638Zm-2.755-4.656c-1.894,0-3.244,3.261-3.244,3.261S8.545,54.983,6.852,55c-1.111.01-1.879,0.409-1.881,1.976,0,1.032,5,5.876,5,5.876s4.952-4.722,4.994-5.791C15.006,55.958,14.664,54.983,13.213,54.983Z"/>
  <path data-name="Wishlist" class="cls-3" d="M15.968,87.638l0.027,0.014-5.882,5.795H9.88L4.171,87.822c-0.051-.05-0.1-0.1-0.153-0.151l-0.049-.048,0.008,0a4.016,4.016,0,0,1-1.015-2.676A3.854,3.854,0,0,1,6.723,81a3.727,3.727,0,0,1,3.292,2.071A3.7,3.7,0,0,1,13.295,81a3.828,3.828,0,0,1,3.736,3.913A3.99,3.99,0,0,1,15.968,87.638Zm-2.755-4.656c-1.894,0-3.244,3.261-3.244,3.261S8.545,82.983,6.852,83c-1.111.01-1.879,0.409-1.881,1.976,0,1.032,5,5.876,5,5.876s4.952-4.723,4.994-5.791C15.006,83.958,14.664,82.983,13.213,82.983Z"/>
  <path class="cls-4" d="M110.7,94.7a1.039,1.039,0,0,1-1.469,0l-2.118-2.117A3.461,3.461,0,0,1,105.5,93a3.5,3.5,0,1,1,3.5-3.5,3.464,3.464,0,0,1-.413,1.617l2.117,2.117A1.039,1.039,0,0,1,110.7,94.7ZM105.5,88a1.5,1.5,0,1,0,1.5,1.5A1.5,1.5,0,0,0,105.5,88Z"/>
  <path class="cls-2" d="M134.7,95.7a1.039,1.039,0,0,1-1.469,0l-2.516-2.516a5.019,5.019,0,1,1,1.469-1.469l2.516,2.516A1.039,1.039,0,0,1,134.7,95.7ZM128,86a3,3,0,1,0,3,3A3,3,0,0,0,128,86Z"/>
  <path class="cls-5" d="M13,245H9v-1H9.467l-0.651-1.985-1.778,3.016L5.26,242.015,4.61,244H5v1H1v-1H1.863l2.83-6.974,2.345,4.291,2.345-4.291L12.214,244H13v1Z"/>
  <path class="cls-6" d="M126,214h-4v4h-2v-4h-4v-2h4v-4h2v4h4v2Z"/>
  <path class="cls-7" d="M50.927,209.639a0.962,0.962,0,0,1,.067.333c0,0.01.006,0.018,0.006,0.028s-0.007.022-.007,0.034a0.952,0.952,0,0,1,0,.181L49.9,215.1c0,0.02-.018.035-0.024,0.054a0.988,0.988,0,0,1-.97.851H39a1.16,1.16,0,0,1-1.046-.948L37.048,208H35a1,1,0,0,1,0-2h2.82a0.006,0.006,0,0,1,0,0h0.082c0.025,0,.046.012,0.07,0.014a0.991,0.991,0,0,1,.318.064l0,0a0.988,0.988,0,0,1,.623.808L39.192,209H50c0.033,0,.061.016,0.093,0.019a0.8,0.8,0,0,1,.139,0,0.793,0.793,0,0,1,.1.046,0.908,0.908,0,0,1,.113.05,0.952,0.952,0,0,1,.235.158c0.017,0.016.032,0.033,0.048,0.05a0.984,0.984,0,0,1,.179.266C50.916,209.607,50.921,209.623,50.927,209.639ZM39.835,214H48.1l0.67-3H39.449Zm0.669,3.012A2.488,2.488,0,1,1,38,219.5,2.5,2.5,0,0,1,40.5,217.012Zm0,3.063a0.575,0.575,0,1,0-.579-0.575A0.577,0.577,0,0,0,40.5,220.075Zm7-3.079a2.5,2.5,0,1,1-2.5,2.5A2.5,2.5,0,0,1,47.5,217Zm0,3.079a0.575,0.575,0,1,0-.579-0.575A0.577,0.577,0,0,0,47.5,220.075Z"/>
  <path data-name="Cart" class="cls-8" d="M166.927,183.639a0.955,0.955,0,0,1,.067.333A0.28,0.28,0,0,1,167,184c0,0.012-.007.022-0.007,0.034a0.913,0.913,0,0,1,0,.181L165.9,189.1a0.522,0.522,0,0,1-.024.054,0.987,0.987,0,0,1-.97.851H155a1.161,1.161,0,0,1-1.046-.948L153.048,182H151a1,1,0,0,1,0-2h2.82a0.005,0.005,0,0,1,0,0h0.082c0.025,0,.046.012,0.071,0.014a0.994,0.994,0,0,1,.318.064l0,0a0.989,0.989,0,0,1,.624.808L155.192,183H166c0.033,0,.061.016,0.093,0.019a0.321,0.321,0,0,1,.242.049,0.933,0.933,0,0,1,.112.05,0.95,0.95,0,0,1,.235.158c0.017,0.016.032,0.033,0.048,0.05a1,1,0,0,1,.179.266C166.916,183.607,166.921,183.623,166.927,183.639ZM155.835,188h8.26l0.67-3h-9.316Zm0.669,3.012A2.488,2.488,0,1,1,154,193.5,2.5,2.5,0,0,1,156.5,191.012Zm0,3.063a0.575,0.575,0,1,0-.579-0.575A0.577,0.577,0,0,0,156.5,194.075Zm7-3.079a2.5,2.5,0,1,1-2.5,2.5A2.5,2.5,0,0,1,163.5,191Zm0,3.079a0.575,0.575,0,1,0-.579-0.575A0.577,0.577,0,0,0,163.5,194.075Z"/>
  <path data-name="Cart" class="cls-1" d="M184.927,161.639a0.955,0.955,0,0,1,.067.333A0.28,0.28,0,0,1,185,162c0,0.012-.007.022-0.007,0.034a0.913,0.913,0,0,1,0,.181L183.9,167.1a0.522,0.522,0,0,1-.024.054,0.987,0.987,0,0,1-.97.851H173a1.161,1.161,0,0,1-1.046-.948L171.048,160H169a1,1,0,0,1,0-2h2.82a0.005,0.005,0,0,1,0,0h0.082c0.025,0,.046.012,0.071,0.014a0.994,0.994,0,0,1,.318.064l0,0a0.989,0.989,0,0,1,.624.808L173.192,161H184c0.033,0,.061.016,0.093,0.019a0.321,0.321,0,0,1,.242.049,0.933,0.933,0,0,1,.112.05,0.95,0.95,0,0,1,.235.158c0.017,0.016.032,0.033,0.048,0.05a1,1,0,0,1,.179.266C184.916,161.607,184.921,161.623,184.927,161.639ZM173.835,166h8.26l0.67-3h-9.316Zm0.669,3.012A2.488,2.488,0,1,1,172,171.5,2.5,2.5,0,0,1,174.5,169.012Zm0,3.063a0.575,0.575,0,1,0-.579-0.575A0.577,0.577,0,0,0,174.5,172.075Zm7-3.079a2.5,2.5,0,1,1-2.5,2.5A2.5,2.5,0,0,1,181.5,169Zm0,3.079a0.575,0.575,0,1,0-.579-0.575A0.577,0.577,0,0,0,181.5,172.075Z"/>
  <path data-name="Cart" class="cls-1" d="M168,144h2v8h-2v-8Zm4-7h2v15h-2V137Zm4,3h2v12h-2V140Zm4,6h2v6h-2v-6Z"/>
  <path data-name="Cart" class="cls-8" d="M96,187h2v8H96v-8Zm4-7h2v15h-2V180Zm4,3h2v12h-2V183Zm4,6h2v6h-2v-6Z"/>
  <path class="cls-1" d="M47.663,5.9l-6.321,6.761a1.074,1.074,0,0,1-1.543,0L36.3,8.906a1.134,1.134,0,0,1,0-1.579,1.074,1.074,0,0,1,1.543,0l2.732,2.925,5.549-5.935a1.073,1.073,0,0,1,1.543,0A1.134,1.134,0,0,1,47.663,5.9Z"/>
  <path data-name="Check" class="cls-1" d="M58.72,8.475l-5.142,5.259a0.926,0.926,0,0,1-.659.251,0.946,0.946,0,0,1-.175-0.033,0.922,0.922,0,0,1-.155-0.031A0.943,0.943,0,0,1,52.23,13.7l-2.968-3a1.013,1.013,0,0,1,0-1.4,0.944,0.944,0,0,1,1.362,0l2.419,2.445,4.39-4.489a0.939,0.939,0,0,1,1.286,0A0.84,0.84,0,0,1,58.72,8.475Z"/>
  <path data-name="Check" class="cls-4" d="M14.691,5.667L8.9,11.724a1,1,0,0,1-1.414,0L4.272,8.7A1,1,0,1,1,5.686,7.286L8.154,9.609l5.124-5.355A1,1,0,1,1,14.691,5.667Z"/>
  <path data-name="Check" class="cls-9" d="M29.691,5.667L23.9,11.724a1,1,0,0,1-1.414,0L19.272,8.7a1,1,0,0,1,1.414-1.414l2.467,2.323,5.124-5.355A1,1,0,0,1,29.691,5.667Z"/>
  <path class="cls-8" d="M80.668,192.668a1.086,1.086,0,0,1-1.534,0l-2.878-2.878a6.532,6.532,0,1,1,1.534-1.534l2.878,2.878A1.085,1.085,0,0,1,80.668,192.668ZM72.5,180a4.5,4.5,0,1,0,4.5,4.5A4.5,4.5,0,0,0,72.5,180Z"/>
  <path class="cls-1" d="M158.668,151.668a1.086,1.086,0,0,1-1.534,0l-2.878-2.878a6.531,6.531,0,1,1,1.534-1.534l2.878,2.878A1.086,1.086,0,0,1,158.668,151.668ZM150.5,139a4.5,4.5,0,1,0,4.5,4.5A4.5,4.5,0,0,0,150.5,139Z"/>
  <path class="cls-10" d="M196,224h-5v5a1,1,0,0,1-2,0v-5h-5a1,1,0,0,1,0-2h5v-5a1,1,0,0,1,2,0v5h5A1,1,0,0,1,196,224Z"/>
  <path class="cls-8" d="M194.659,187.851l-4.632,4.632,4.632,4.632a1.092,1.092,0,0,1-1.544,1.544l-4.632-4.632-4.632,4.632a1.092,1.092,0,0,1-1.545-1.544l4.633-4.632-4.633-4.632a1.092,1.092,0,0,1,1.545-1.545l4.632,4.633,4.632-4.633A1.092,1.092,0,0,1,194.659,187.851Z"/>
  <rect class="cls-11" x="158" y="209" width="10" height="2"/>
  <rect class="cls-11" x="158" y="213" width="10" height="2"/>
  <path class="cls-1" d="M142.414,213l3.3,3.3a1,1,0,0,1-1.414,1.414l-3.3-3.3-3.3,3.3a1,1,0,0,1-1.415-1.414l3.3-3.3-3.3-3.3a1,1,0,0,1,1.415-1.415l3.3,3.3,3.3-3.3a1,1,0,0,1,1.414,1.415Z"/>
  <path class="cls-12" d="M27.522,237.513l-3.653,3.544,3.518,3.392"/>
  <path class="cls-1" d="M56,166H5a3,3,0,0,1-3-3V132a3,3,0,0,1,3-3H18.849a12.456,12.456,0,0,0,.989,2H5a1,1,0,0,0-1,1v31a1,1,0,0,0,1,1H56a1,1,0,0,0,1-1V132a1,1,0,0,0-1-1H41.162a12.456,12.456,0,0,0,.989-2H56a3,3,0,0,1,3,3v31A3,3,0,0,1,56,166Z"/>
  <path class="cls-13" d="M3.985,163.716s12.178-9.9,20.006-16.393m33,16.489s-19.016-15.612-20.2-16.6"/>
  <path class="cls-13" d="M4.016,131.707l26.429,20.52,26.546-20.618"/>
  <path class="cls-13" d="M30.5,112.028A12.472,12.472,0,1,0,43,124.5a12.486,12.486,0,0,0-12.5-12.472h0Z"/>
  <path data-name="Check" class="cls-1" d="M37.8,120.559l-9.028,9.091a0.872,0.872,0,0,1-.052.078,1,1,0,0,1-1.414,0l-3.95-3.95a1,1,0,1,1,1.414-1.414L28,127.591l8.388-8.446A1,1,0,0,1,37.8,120.559Z"/>
  <path class="cls-1" d="M77,88V86h1.21a4.444,4.444,0,0,0-7.219-.285l-1.748-1.009A6.477,6.477,0,0,1,74.5,82,6.4,6.4,0,0,1,80,85.135V83h2v5H77Zm-5,3H70.792a4.46,4.46,0,0,0,6.864.7l1.778,0.984A6.4,6.4,0,0,1,69,91.861V94H67V89h5v2Z"/>
</svg>
