<svg xmlns="http://www.w3.org/2000/svg" width="190" height="40" viewBox="0 0 190 40">
  <defs>
    <style>
      .cls-14 {
        fill: #222;
      }

      .cls-14, .cls-24 {
        fill-rule: evenodd;
      }

      .cls-24 {
        fill: #1976d2;
      }
    </style>
  </defs>
  <path class="cls-14" d="M57.023,29.98h2.965V12.031h7V9.019H50.023v3.011h7V29.98Zm12,0h2.968v-16H69.021v16Zm8.967-13.205V14.016H75.014V29.98h2.968V22.075c0-3.474,1.916-5.36,5-5.36,0.21,0,.732,0,0.971.03V13.96C81.169,13.96,79.005,14.918,77.987,16.775Zm22.876,5.36c0-4.881-3.264-8.175-7.845-8.175a7.772,7.772,0,0,0-7.965,8.085c0,4.731,3.414,8.021,8.534,8.021a7.966,7.966,0,0,0,6.258-2.575l-1.587-1.857a5.926,5.926,0,0,1-4.582,1.916c-3.144,0-5.39-1.763-5.749-4.548H100.8C100.833,22.734,100.863,22.374,100.863,22.135Zm-7.845-5.749a4.949,4.949,0,0,1,5.09,4.552H87.927A4.947,4.947,0,0,1,93.018,16.386Zm17.149,13.709c5.454,0,7.895-2.672,7.895-5.853,0-7.64-12.4-4.459-12.4-9.542,0-1.813,1.5-3.206,5.011-3.206a10.5,10.5,0,0,1,5.66,1.632l0.973-2.378A12.064,12.064,0,0,0,110.668,8.9c-5.424,0-7.744,2.7-7.744,5.914,0,7.729,12.343,4.518,12.343,9.6,0,1.813-1.533,3.085-5.1,3.085a10.536,10.536,0,0,1-6.81-2.345l-1.09,2.319C103.917,29.025,107.013,30.095,110.167,30.095ZM129.422,13.96a6.563,6.563,0,0,0-5.443,2.4V8.012H121.01V29.98h2.969V21.93c0-3.443,1.82-5.333,4.874-5.333,2.725,0,4.157,1.34,4.157,4.454V29.98h3V20.847C136.01,16.176,133.285,13.96,129.422,13.96ZM70.5,9A1.5,1.5,0,1,1,69,10.5,1.5,1.5,0,0,1,70.5,9ZM146,30.066A7.746,7.746,0,0,0,153.969,22,7.984,7.984,0,1,0,138,22,7.769,7.769,0,0,0,146,30.066Zm0-2.5c-2.955,0-5.187-2.2-5.187-5.567s2.232-5.537,5.187-5.537,5.159,2.173,5.159,5.537S148.955,27.565,146,27.565Zm18.293,2.47a6.451,6.451,0,0,1-5.314-2.575v8.517h-2.969L156,14h3v2.438a6.5,6.5,0,0,1,5.292-2.478c4.482,0,7.75,3.234,7.75,8.085C172.042,26.926,168.774,30.035,164.292,30.035ZM164.06,16.475c-2.92,0-5.112,2.216-5.112,5.57,0,3.384,2.192,5.475,5.112,5.475,2.95,0,5.177-2.091,5.177-5.475C169.237,18.691,167.01,16.475,164.06,16.475Zm14.257,10.9,6.252-6.168c2.845-2.725,3.444-4.3,3.444-6.338,0-3.437-2.909-5.9-6.937-5.9a9.53,9.53,0,0,0-7.6,3.174l2.036,1.767a6.585,6.585,0,0,1,5.36-2.276c2.935,0,4.181,1.318,4.181,3.474,0,1.318-.451,2.448-2.667,4.6l-8.377,8.235V29.98h13.968V27.375h-9.657Z"></path>
  <path class="cls-24 icon-path" d="M20,40A20,20,0,0,1,0,20a19.664,19.664,0,0,1,1.476-7.38A2,2,0,0,1,3.438,11H20a9,9,0,1,1-7.482,4H4.806A16,16,0,1,0,20,4H11.5A3.5,3.5,0,0,1,8,.5V0H21a1.981,1.981,0,0,1,.519.077A19.99,19.99,0,0,1,20,40Zm0-15a5,5,0,1,0-5-5A5,5,0,0,0,20,25Z"></path>
</svg>