<svg xmlns="http://www.w3.org/2000/svg" width="20" height="250"><defs><style>.cls-2,.cls-3,.cls-4{fill-rule:evenodd}.cls-2{fill:#1284b9}.cls-3{fill:#fe9b00}.cls-4{fill:#485764}</style></defs><path d="M12.052 42.985l6.617 10.93A3.3 3.3 0 0119 55.378a3.37 3.37 0 01-.228 1.232A1.959 1.959 0 0117.054 58H2.946a1.959 1.959 0 01-1.718-1.39 3.412 3.412 0 01.1-2.7l6.617-10.93a2.628 2.628 0 014.107.005z" fill-rule="evenodd" fill="#fff" stroke="#c60010" stroke-linecap="round" stroke-linejoin="round" stroke-width="2"/><path class="cls-2" d="M10.034 71.966l-.043-.076-1.781 3.085 1.59 2.759-.544.942H8.17L7.121 76.86l-1.2 2.083H4.83L4.286 78l1.2-2.083h-2.1l-.544-.942.544-.942h3.191l1.781-3.085H4.8l-1.6 2.758H2.115l-.544-.943 1.049-1.815H.215l-.544-.942.544-.942H2.62l-1.049-1.817.544-.947H3.2l1.6 2.762h3.558l-1.781-3.084H3.392l-.544-.942.544-.943h2.1l-1.2-2.083.544-.942h1.083l1.2 2.083 1.051-1.816h1.088l.542.942-1.591 2.759 1.781 3.085.044-.077 1.659 2.263z"/><path class="cls-3" d="M18.562 73.075l-.978-.262a1.013 1.013 0 01.524-1.956l.978.262a1.013 1.013 0 11-.524 1.956zm-5.99-8.943a1.013 1.013 0 01-.716-1.24l.262-.978a1.013 1.013 0 111.956.524l-.262.978a1.012 1.012 0 01-1.24.716zm4.871 12.312a1.013 1.013 0 01-1.432 0l-.711-.716a1.013 1.013 0 011.428-1.428l.716.716a1.013 1.013 0 010 1.428zM16.728 65.7a1.013 1.013 0 01-1.428-1.428l.716-.716a1.013 1.013 0 111.432 1.432zm3.072 1.941a1.013 1.013 0 01-.716 1.24l-.978.262a1.013 1.013 0 01-.524-1.956l.978-.262a1.013 1.013 0 011.24.716zm-5.99 8.943l.262.978a1.013 1.013 0 11-1.956.524l-.262-.978a1.013 1.013 0 011.959-.524zm-3.749-1.69l1.142-1.9a2.992 2.992 0 00.006-5.971l-1.145-1.908a4.987 4.987 0 110 9.779z"/><path class="cls-4" d="M20 171.469c0 3.56-2 6.283-4.961 6.509a1.04 1.04 0 00-1.991.022h-2.065a1.04 1.04 0 00-2 0H7.046a1.04 1.04 0 00-1.992-.018C2.042 177.8 0 175.061 0 171.469a6.2 6.2 0 012.219-4.688A2.984 2.984 0 003 164.562V163a1 1 0 012 0v.049c-.005.422-.064 3.681-.684 4.262-.816.762-2.316 1.989-2.316 4C2 175.761 5.03 176 5.03 176h9.956s3.021-.239 3.021-4.689c0-2.007-1.495-3.238-2.306-4-.593-.558-.677-3.584-.688-4.2a.983.983 0 111.956-.111H17l.008 1.558a2.99 2.99 0 00.779 2.219A6.207 6.207 0 0120 171.469z"/><path d="M6.579 175.781H4.172a5.509 5.509 0 01-2.673-4.24 4.975 4.975 0 013.266-4.836 5.618 5.618 0 00-1.578 3.881 5.792 5.792 0 003.392 5.195zm11.915-4.24a5.509 5.509 0 01-2.673 4.24h-2.4a5.792 5.792 0 003.392-5.195 5.619 5.619 0 00-1.572-3.876 4.975 4.975 0 013.253 4.831z" fill="#1285ba" fill-rule="evenodd"/><path class="cls-4" d="M2.346 174.309a31.177 31.177 0 007.533 1.078 34.015 34.015 0 007.817-1.078v2.123H2.346v-2.123z"/><path d="M7 208.5V207l2.719-5h.563l1.9 3.492zM4 215h12a1 1 0 010 2H4a1 1 0 010-2zm3-1v-1.06l6-3.485V214H7z" fill="#6c757c" fill-rule="evenodd"/><path class="cls-2" d="M4.476 211.134l10.077-6a.954.954 0 011.325.366 1.017 1.017 0 01-.355 1.366l-10.077 6a.954.954 0 01-1.325-.366 1.017 1.017 0 01.355-1.366z"/><path d="M6 55v-6h2v4h1v-4h2v4h1v-4h2v6H6z" fill="#3e3e3e" fill-rule="evenodd"/><path class="cls-3" d="M8.706 25.17a5 5 0 11-3.536 6.124 5 5 0 013.536-6.124zm.518 1.93A3 3 0 117.1 30.777 3 3 0 019.224 27.1zm-1.583-5.9a1.013 1.013 0 011.24.716l.262.978a1.013 1.013 0 01-1.956.524l-.262-.978a1.013 1.013 0 01.716-1.24zm3.931 14.671a1.012 1.012 0 011.24.716l.262.978a1.013 1.013 0 01-1.956.524l-.262-.978a1.013 1.013 0 01.716-1.243zm-9.659-4.75l.978-.262a1.013 1.013 0 01.524 1.956l-.978.262a1.013 1.013 0 01-.523-1.958zm14.671-3.931l.978-.262a1.013 1.013 0 11.524 1.956l-.978.262a1.013 1.013 0 01-.524-1.958zM3.556 23.556a1.013 1.013 0 011.432 0l.712.716A1.013 1.013 0 014.272 25.7l-.716-.716a1.013 1.013 0 010-1.428zM14.3 34.3a1.012 1.012 0 011.432 0l.716.716a1.013 1.013 0 01-1.432 1.432l-.716-.72a1.012 1.012 0 010-1.428zm-10.74.716l.712-.716A1.013 1.013 0 015.7 35.728l-.716.716a1.013 1.013 0 01-1.428-1.432zM14.3 24.272l.716-.716a1.013 1.013 0 111.432 1.432l-.716.716a1.013 1.013 0 11-1.432-1.432zM1.2 27.641a1.013 1.013 0 011.24-.716l.978.262a1.013 1.013 0 01-.524 1.956l-.978-.262a1.013 1.013 0 01-.716-1.24zm14.671 3.931a1.013 1.013 0 011.24-.716l.978.262a1.013 1.013 0 11-.524 1.956l-.978-.262a1.012 1.012 0 01-.719-1.24zm-8.943 5.99l.262-.978a1.013 1.013 0 011.956.524l-.262.978a1.013 1.013 0 11-1.959-.524zm3.931-14.671l.262-.978a1.013 1.013 0 011.956.524l-.262.978a1.013 1.013 0 01-1.959-.523z"/><path class="cls-2" d="M20.31 10.005l-.544-.942h-2.405l1.049-1.816-.544-.947h-1.088l-1.593 2.763h-3.562L13.4 5.978h3.185l.544-.942-.544-.942h-2.1l1.2-2.083-.544-.942h-1.079l-1.2 2.083-1.051-1.817h-1.088l-.544.943 1.592 2.759L9.99 8.121 8.209 5.036 9.8 2.277l-.542-.942H8.17L7.121 3.151l-1.2-2.083h-1.09l-.545.942 1.2 2.083h-2.1l-.544.943.55.942h3.185l1.781 3.085H4.8L3.2 6.3H2.115l-.544.942L2.62 9.063H.215l-.544.942.544.942H2.62l-1.049 1.817.544.943H3.2l1.6-2.759h3.558l-1.781 3.084H3.392l-.544.942.544.942h2.1L4.286 18l.544.943h1.089l1.2-2.083 1.051 1.816h1.088l.542-.942-1.59-2.759 1.781-3.085 1.781 3.085-1.592 2.759.544.943h1.088l1.048-1.817 1.2 2.083h1.088l.547-.943-1.2-2.083h2.1l.544-.942-.544-.943H13.4l-1.781-3.085h3.562l1.592 2.759h1.088l.544-.942-1.048-1.816h2.405z"/></svg>